<?xml version="1.0" encoding="UTF-8"?>
<svg width="165px" height="92px" viewBox="0 0 165 92" version="1.1" xmlns="http://www.w3.org/2000/svg" xmlns:xlink="http://www.w3.org/1999/xlink">
    <!-- Generator: Sketch 41.2 (35397) - http://www.bohemiancoding.com/sketch -->
    <title>Group 3</title>
    <desc>Created with Sketch.</desc>
    <defs>
        <rect id="path-1" x="0" y="0" width="165" height="92" rx="4"></rect>
        <mask id="mask-2" maskContentUnits="userSpaceOnUse" maskUnits="objectBoundingBox" x="0" y="0" width="165" height="92" fill="white">
            <use xlink:href="#path-1"></use>
        </mask>
        <rect id="path-3" x="0" y="0" width="41.0180565" height="35.5860062"></rect>
        <rect id="path-5" x="-1.31450406e-13" y="0" width="46.6114279" height="35.5860062"></rect>
        <rect id="path-7" x="-1.45661261e-13" y="0" width="46.6114279" height="35.5860062"></rect>
        <rect id="path-9" x="5.22047992" y="0" width="9.32228558" height="16.4819397" rx="1.67832168"></rect>
        <mask id="mask-10" maskContentUnits="userSpaceOnUse" maskUnits="objectBoundingBox" x="0" y="0" width="9.32228558" height="16.4819397" fill="white">
            <use xlink:href="#path-9"></use>
        </mask>
        <rect id="path-11" x="5.22047992" y="3.74589539" width="9.32228558" height="9.36473848"></rect>
        <mask id="mask-12" maskContentUnits="userSpaceOnUse" maskUnits="objectBoundingBox" x="0" y="0" width="9.32228558" height="9.36473848" fill="white">
            <use xlink:href="#path-11"></use>
        </mask>
    </defs>
    <g id="mockup" stroke="none" stroke-width="1" fill="none" fill-rule="evenodd">
        <g id="社区首页" transform="translate(-716.000000, -1283.000000)">
            <g id="zb" transform="translate(101.000000, 1022.000000)">
                <g id="Group-3" transform="translate(615.000000, 261.000000)">
                    <use id="Rectangle" stroke="#ECECEC" mask="url(#mask-2)" stroke-width="2" fill="#FAFAFA" xlink:href="#path-1"></use>
                    <rect id="Rectangle" fill="#528FCC" x="0" y="67" width="165" height="25" rx="4"></rect>
                    <path d="M40.654,78.918 C39.898,79.17 39.1,79.408 38.26,79.632 L38.26,77.434 L41.396,77.434 C41.508,78.456 41.662,79.352 41.858,80.108 C41.984,80.612 42.124,81.088 42.292,81.55 C41.312,82.446 40.164,83.132 38.848,83.608 L39.59,84.756 C40.794,84.294 41.872,83.65 42.838,82.838 C43.048,83.286 43.286,83.664 43.552,84 C44.21,84.826 44.84,85.246 45.442,85.246 C46.114,85.246 46.632,84.238 46.982,82.25 L45.806,81.634 C45.624,83.09 45.442,83.818 45.26,83.818 C45.036,83.818 44.714,83.496 44.294,82.866 C44.126,82.614 43.972,82.292 43.804,81.914 C44.672,80.99 45.414,79.884 46.044,78.596 L44.896,77.994 C44.448,78.918 43.916,79.744 43.314,80.472 C43.244,80.248 43.174,80.01 43.118,79.744 C42.95,79.128 42.824,78.358 42.74,77.434 L46.856,77.434 L46.856,76.16 L42.628,76.16 C42.544,75.124 42.502,73.92 42.502,72.548 L41.158,72.548 C41.158,73.864 41.2,75.068 41.284,76.16 L38.26,76.16 L38.26,74.382 C38.918,74.2 39.548,74.004 40.15,73.794 L39.688,72.548 C38.176,73.164 36.44,73.57 34.48,73.78 L34.76,75.04 C35.502,74.928 36.216,74.816 36.916,74.676 L36.916,76.16 L34.144,76.16 L34.144,77.434 L36.916,77.434 L36.916,79.94 C36.034,80.122 35.11,80.29 34.144,80.444 L34.326,81.774 C35.222,81.634 36.076,81.466 36.916,81.284 L36.916,83.566 C36.916,83.902 36.734,84.07 36.384,84.07 C35.936,84.07 35.474,84.042 34.984,83.986 L35.278,85.26 L36.846,85.26 C37.784,85.26 38.26,84.798 38.26,83.902 L38.26,80.976 C39.1,80.752 39.898,80.528 40.654,80.276 L40.654,78.918 Z M44.042,72.674 L43.146,73.528 C44.21,74.242 45.022,74.9 45.61,75.516 L46.576,74.564 C45.876,73.934 45.036,73.304 44.042,72.674 Z M48.27,72.996 L48.27,74.186 L52.288,74.186 L52.288,75.208 L49.11,75.208 L49.11,78.918 L52.652,78.918 C52.47,79.24 52.274,79.562 52.078,79.898 L48.088,79.898 L48.088,81.13 L51.322,81.13 C51.042,81.578 50.734,82.026 50.426,82.474 C51.504,82.726 52.582,83.006 53.66,83.328 C52.428,83.748 50.678,84.07 48.438,84.322 L48.942,85.498 C51.938,85.092 54.094,84.546 55.41,83.874 C56.908,84.364 58.406,84.924 59.89,85.554 L60.716,84.462 C59.316,83.93 57.944,83.454 56.614,83.048 C57.244,82.488 57.692,81.858 57.972,81.13 L60.898,81.13 L60.898,79.898 L53.59,79.898 C53.758,79.59 53.94,79.268 54.15,78.918 L59.89,78.918 L59.89,75.208 L56.712,75.208 L56.712,74.186 L60.73,74.186 L60.73,72.996 L48.27,72.996 Z M55.172,82.628 C54.192,82.362 53.24,82.138 52.302,81.942 L52.848,81.13 L56.586,81.13 C56.306,81.718 55.83,82.208 55.172,82.628 Z M55.438,75.208 L53.562,75.208 L53.562,74.186 L55.438,74.186 L55.438,75.208 Z M58.616,77.784 L56.712,77.784 L56.712,76.342 L58.616,76.342 L58.616,77.784 Z M55.438,77.784 L53.562,77.784 L53.562,76.342 L55.438,76.342 L55.438,77.784 Z M52.288,77.784 L50.384,77.784 L50.384,76.342 L52.288,76.342 L52.288,77.784 Z M74.058,75.236 L69.942,75.992 C69.858,74.956 69.83,73.794 69.83,72.52 L68.486,72.52 C68.486,73.878 68.542,75.11 68.64,76.23 L66.862,76.552 L67.058,77.826 L68.766,77.504 C68.878,78.442 69.032,79.268 69.228,79.968 C69.368,80.5 69.522,80.99 69.69,81.452 C68.766,82.152 67.702,82.712 66.498,83.132 L67.226,84.266 C68.318,83.874 69.312,83.356 70.222,82.712 C70.432,83.174 70.67,83.58 70.936,83.93 C71.608,84.826 72.266,85.288 72.938,85.288 C73.386,85.288 73.778,84.952 74.128,84.308 C74.408,83.776 74.674,83.104 74.926,82.306 L73.736,81.564 C73.428,83.02 73.148,83.776 72.868,83.832 C72.462,83.818 72.014,83.412 71.524,82.614 C71.412,82.404 71.3,82.18 71.188,81.928 C72.308,80.92 73.26,79.66 74.044,78.176 L72.896,77.574 C72.294,78.722 71.566,79.716 70.712,80.57 C70.572,80.108 70.446,79.604 70.334,79.072 C70.222,78.526 70.124,77.924 70.068,77.266 L74.254,76.496 L74.058,75.236 Z M66.834,77.91 C66.33,78.19 65.812,78.442 65.28,78.68 L65.28,76.258 L66.806,76.258 L66.806,74.984 L65.28,74.984 L65.28,72.562 L63.95,72.562 L63.95,74.984 L62.158,74.984 L62.158,76.258 L63.95,76.258 L63.95,79.198 C63.292,79.422 62.634,79.618 61.962,79.772 L62.326,81.186 C62.872,81.004 63.418,80.808 63.95,80.612 L63.95,83.622 C63.95,83.958 63.782,84.14 63.446,84.14 C63.11,84.14 62.76,84.112 62.396,84.056 L62.704,85.358 L63.908,85.358 C64.818,85.358 65.28,84.882 65.28,83.958 L65.28,80.038 C65.812,79.8 66.33,79.548 66.834,79.282 L66.834,77.91 Z M71.944,72.506 L70.768,73.066 C71.216,73.612 71.65,74.228 72.056,74.914 L73.246,74.312 C72.826,73.668 72.392,73.066 71.944,72.506 Z M83.13,72.548 L81.786,72.548 C81.786,73.08 81.772,73.808 81.772,74.746 C81.66,78.764 79.714,81.914 75.934,84.21 L76.746,85.4 C79.686,83.496 81.618,81.088 82.542,78.176 C83.606,81.172 85.482,83.58 88.17,85.372 L89.052,84.21 C85.86,82.25 83.844,79.408 83.032,75.684 C83.088,74.816 83.13,73.78 83.13,72.548 Z M98.74,78.008 C98.936,79.422 99.286,80.724 99.804,81.9 C99.23,82.964 98.474,83.818 97.536,84.448 L98.306,85.456 C99.146,84.854 99.86,84.098 100.448,83.174 C100.924,83.972 101.484,84.714 102.156,85.386 L103.08,84.504 C102.282,83.748 101.624,82.894 101.106,81.914 C101.82,80.276 102.198,78.246 102.254,75.824 L102.828,75.824 L102.828,74.578 L99.916,74.578 C100.028,74.06 100.126,73.5 100.21,72.912 L98.978,72.688 C98.698,74.9 98.18,76.65 97.424,77.966 L98.194,78.918 C98.39,78.638 98.572,78.344 98.74,78.008 Z M100.42,80.416 C99.93,79.128 99.636,77.658 99.538,76.034 L99.594,75.824 L101.092,75.824 C101.064,77.574 100.84,79.1 100.42,80.416 Z M92.664,72.562 C92.076,74.662 91.152,76.496 89.92,78.064 L90.354,79.492 C90.746,79.03 91.124,78.554 91.474,78.078 L91.474,85.484 L92.762,85.484 L92.762,75.922 C93.21,75.026 93.574,74.102 93.854,73.136 L92.664,72.562 Z M97.76,78.862 L96.276,78.862 L96.276,76.398 L97.984,76.398 L97.984,75.18 L96.276,75.18 L96.276,72.716 L95.016,72.716 L95.016,75.18 L93.322,75.18 L93.322,76.398 L95.016,76.398 L95.016,78.862 L93.574,78.862 L93.574,84.728 L94.82,84.728 L94.82,83.902 L97.76,83.902 L97.76,78.862 Z M94.82,82.74 L94.82,80.038 L96.5,80.038 L96.5,82.74 L94.82,82.74 Z M105.782,75.068 L105.782,81.382 C105.222,81.536 104.648,81.69 104.06,81.83 L104.452,83.146 C106.048,82.712 107.462,82.236 108.694,81.732 L108.694,80.402 C108.19,80.598 107.672,80.794 107.126,80.976 L107.126,75.068 L108.638,75.068 L108.638,73.78 L104.228,73.78 L104.228,75.068 L105.782,75.068 Z M109.086,73.01 L109.086,74.298 L112.362,74.298 C112.306,74.704 112.222,75.096 112.11,75.488 L109.618,75.488 L109.618,82.264 L110.892,82.264 L110.892,76.72 L115.078,76.72 L115.078,82.264 L116.366,82.264 L116.366,75.488 L113.426,75.488 C113.51,75.11 113.594,74.718 113.664,74.298 L116.926,74.298 L116.926,73.01 L109.086,73.01 Z M114.28,82.18 L113.398,83.034 C114.574,83.93 115.484,84.756 116.128,85.526 L117.08,84.574 C116.324,83.79 115.4,82.992 114.28,82.18 Z M112.278,77.42 L112.278,79.87 C112.222,81.018 111.9,81.956 111.34,82.684 C110.752,83.356 109.632,83.916 108.008,84.364 L108.736,85.498 C110.416,85.022 111.62,84.378 112.362,83.538 C113.118,82.614 113.538,81.382 113.608,79.87 L113.608,77.42 L112.278,77.42 Z M129.386,73.094 L119.628,73.094 L119.628,85.456 L120.986,85.456 L120.986,84.602 L128.042,84.602 L128.042,85.428 L129.386,85.428 L129.386,73.094 Z M120.986,83.314 L120.986,80.99 L128.042,80.99 L128.042,83.314 L120.986,83.314 Z M120.986,79.786 L120.986,77.63 L128.042,77.63 L128.042,79.786 L120.986,79.786 Z M120.986,76.398 L120.986,74.382 L128.042,74.382 L128.042,76.398 L120.986,76.398 Z" id="我要找人做项目" fill="#FFFFFF"></path>
                    <g id="ic_01" transform="translate(43.356322, 7.000000)">
                        <path d="M63.0355465,55.7821541 C69.0215542,49.8882957 72.7355471,41.6744927 72.7355471,32.5892899 C72.7355471,14.6546043 58.2625208,0.115668958 40.4091379,0.115668958 C33.8587927,0.115668958 27.7634878,2.07280019 22.67108,5.43671091 C21.6746966,6.09489557 20.7167072,6.80693604 19.8012155,7.56870993 M13.6251685,14.4009078 C13.3764073,14.7698525 13.1350017,15.1442101 12.9011635,15.5237682 C11.1220461,18.4115694 9.78097206,21.6004064 8.97111379,24.9966825" id="Oval-6" stroke="#5088BF" stroke-width="0.839160839" stroke-dasharray="1.678321758906047" opacity="0.5"></path>
                        <path d="M40.4946611,58.8105576 C47.1456393,58.8105576 53.2156263,56.3117107 57.8250223,52.1976225 M66.5970608,32.5892899 C66.5970608,18.1076836 54.9106184,6.36802217 40.4946611,6.36802217 C35.2054956,6.36802217 30.2837586,7.94833445 26.1718245,10.66457 C25.3672812,11.1960302 24.5937396,11.770977 23.8545133,12.3860817 M18.86758,17.9028329 C18.6667144,18.2007423 18.4717882,18.5030225 18.2829723,18.8095019" id="Oval-6" stroke="#5088BF" stroke-width="0.839160839" stroke-dasharray="1.678321758906047" opacity="0.2"></path>
                        <g id="Group-6" transform="translate(14.083155, 8.990149)">
                            <mask id="mask-4" fill="white">
                                <use xlink:href="#path-3"></use>
                            </mask>
                            <g id="Mask"></g>
                            <g mask="url(#mask-4)">
                                <g transform="translate(25.781091, 25.652749) rotate(-20.000000) translate(-25.781091, -25.652749) translate(10.781091, 6.652749)">
                                    <path d="M-3.55271368e-15,1.68230481 C-3.55271368e-15,0.753193518 0.741561994,-1.33226763e-13 1.68077078,-1.33226763e-13 L23.902406,-1.33226763e-13 L29.4584224,5.67783363 L29.4584224,35.7727018 C29.4584224,36.7039931 28.7006293,37.4589539 27.7795198,37.4589539 L1.67890263,37.4589539 C0.751670313,37.4589539 -3.55271368e-15,36.7106971 -3.55271368e-15,35.7766491 L-3.55271368e-15,1.68230481 Z" id="Rectangle-82-Copy" fill="#528FCC"></path>
                                    <path d="M1.49156569,2.33316267 C1.49156569,1.87211287 1.87477794,1.49835816 2.33010568,1.49835816 L23.5699815,1.49835816 L27.9668567,6.03378132 L27.9668567,35.1289467 C27.9668567,35.5882538 27.5925937,35.9605958 27.1307767,35.9605958 L2.3276457,35.9605958 C1.86589146,35.9605958 1.49156569,35.585314 1.49156569,35.1257912 L1.49156569,2.33316267 Z" id="Rectangle-82" fill="#FFFFFF"></path>
                                    <rect id="Rectangle-91" fill="#D8E5EF" x="5.59337135" y="5.99343263" width="17.138684" height="0.749179078"></rect>
                                    <rect id="Rectangle-91-Copy-3" fill="#D8E5EF" x="5.59337135" y="14.9835816" width="17.138684" height="0.749179078"></rect>
                                    <rect id="Rectangle-91-Copy" fill="#D8E5EF" x="5.59337135" y="8.99014894" width="17.138684" height="0.749179078"></rect>
                                    <rect id="Rectangle-91-Copy-4" fill="#D8E5EF" x="5.59337135" y="17.9802979" width="17.138684" height="0.749179078"></rect>
                                    <rect id="Rectangle-91-Copy-2" fill="#D8E5EF" x="5.59337135" y="11.9868653" width="17.138684" height="0.749179078"></rect>
                                    <rect id="Rectangle-91-Copy-5" fill="#D8E5EF" x="5.59337135" y="20.9770142" width="17.138684" height="0.749179078"></rect>
                                    <rect id="Rectangle-85" fill="#528FCC" x="22.7463768" y="2.24753723" width="0.745782846" height="4.49507447"></rect>
                                    <rect id="Rectangle-86" fill="#528FCC" x="23.4921597" y="5.99343263" width="3.72891423" height="0.749179078"></rect>
                                    <polygon id="Rectangle-84" fill="#D8E5EF" points="23.4921597 1.48825265 27.9668567 5.99343263 23.4921597 5.99343263"></polygon>
                                </g>
                            </g>
                        </g>
                        <g id="Group-6" transform="translate(49.127109, 28.113918) scale(-1, 1) translate(-49.127109, -28.113918) translate(25.627109, 10.113918)">
                            <mask id="mask-6" fill="white">
                                <use xlink:href="#path-5"></use>
                            </mask>
                            <g id="Mask"></g>
                            <g mask="url(#mask-6)">
                                <g transform="translate(25.781091, 25.652749) rotate(-20.000000) translate(-25.781091, -25.652749) translate(10.781091, 6.652749)">
                                    <path d="M5.15143483e-14,1.68230481 C5.15143483e-14,0.753193518 0.741561994,-1.77635684e-15 1.68077078,-1.77635684e-15 L23.902406,-1.77635684e-15 L29.4584224,5.67783363 L29.4584224,35.7727018 C29.4584224,36.7039931 28.7006293,37.4589539 27.7795198,37.4589539 L1.67890263,37.4589539 C0.751670313,37.4589539 5.15143483e-14,36.7106971 5.15143483e-14,35.7766491 L5.15143483e-14,1.68230481 Z" id="Rectangle-82-Copy" fill="#C9E0F5"></path>
                                    <rect id="Rectangle-91" fill="#D8E5EF" x="5.59337135" y="5.99343263" width="17.138684" height="0.749179078"></rect>
                                    <rect id="Rectangle-91-Copy-3" fill="#D8E5EF" x="5.59337135" y="14.9835816" width="17.138684" height="0.749179078"></rect>
                                    <rect id="Rectangle-91-Copy" fill="#D8E5EF" x="5.59337135" y="8.99014894" width="17.138684" height="0.749179078"></rect>
                                    <rect id="Rectangle-91-Copy-4" fill="#D8E5EF" x="5.59337135" y="17.9802979" width="17.138684" height="0.749179078"></rect>
                                    <rect id="Rectangle-91-Copy-2" fill="#D8E5EF" x="5.59337135" y="11.9868653" width="17.138684" height="0.749179078"></rect>
                                    <rect id="Rectangle-91-Copy-5" fill="#D8E5EF" x="5.59337135" y="20.9770142" width="17.138684" height="0.749179078"></rect>
                                    <rect id="Rectangle-85" fill="#528FCC" x="22.7463768" y="2.24753723" width="0.745782846" height="4.49507447"></rect>
                                    <rect id="Rectangle-86" fill="#528FCC" x="23.4921597" y="5.99343263" width="3.72891423" height="0.749179078"></rect>
                                    <polygon id="Rectangle-84" fill="#D8E5EF" points="23.4921597 1.48825265 27.9668567 5.99343263 23.4921597 5.99343263"></polygon>
                                </g>
                            </g>
                        </g>
                        <g id="Group-6" transform="translate(46.889760, 26.990149) scale(-1, 1) translate(-46.889760, -26.990149) translate(23.389760, 8.990149)">
                            <mask id="mask-8" fill="white">
                                <use xlink:href="#path-7"></use>
                            </mask>
                            <g id="Mask"></g>
                            <g mask="url(#mask-8)">
                                <g transform="translate(25.781091, 25.652749) rotate(-20.000000) translate(-25.781091, -25.652749) translate(10.781091, 6.652749)">
                                    <path d="M-6.21724894e-15,1.68230481 C-6.21724894e-15,0.753193518 0.741561994,-1.38555833e-13 1.68077078,-1.38555833e-13 L23.902406,-1.38555833e-13 L29.4584224,5.67783363 L29.4584224,35.7727018 C29.4584224,36.7039931 28.7006293,37.4589539 27.7795198,37.4589539 L1.67890263,37.4589539 C0.751670313,37.4589539 -6.21724894e-15,36.7106971 -6.21724894e-15,35.7766491 L-6.21724894e-15,1.68230481 Z" id="Rectangle-82-Copy" fill="#528FCC"></path>
                                    <path d="M1.49156569,2.33316267 C1.49156569,1.87211287 1.87477794,1.49835816 2.33010568,1.49835816 L23.5699815,1.49835816 L27.9668567,6.03378132 L27.9668567,35.1289467 C27.9668567,35.5882538 27.5925937,35.9605958 27.1307767,35.9605958 L2.3276457,35.9605958 C1.86589146,35.9605958 1.49156569,35.585314 1.49156569,35.1257912 L1.49156569,2.33316267 Z" id="Rectangle-82" fill="#FFFFFF"></path>
                                    <path d="M3.79376491,5.33670115 C3.79376491,4.87188357 4.17845827,4.49507447 4.6342881,4.49507447 L23.9523185,4.49507447 L27.9668567,8.63611301 L27.9668567,35.1128653 C27.9668567,35.5810539 27.5871552,35.9605958 27.1347642,35.9605958 L4.62585745,35.9605958 C4.16630543,35.9605958 3.79376491,35.5853029 3.79376491,35.1189691 L3.79376491,5.33670115 Z" id="Rectangle-82" fill="#FFFFFF"></path>
                                    <rect id="Rectangle-91" fill="#D8E5EF" x="5.59337135" y="5.99343263" width="17.138684" height="0.749179078"></rect>
                                    <rect id="Rectangle-91-Copy-3" fill="#D8E5EF" x="5.59337135" y="14.9835816" width="17.138684" height="0.749179078"></rect>
                                    <rect id="Rectangle-91-Copy" fill="#D8E5EF" x="5.59337135" y="8.99014894" width="17.138684" height="0.749179078"></rect>
                                    <rect id="Rectangle-91-Copy-4" fill="#D8E5EF" x="5.59337135" y="17.9802979" width="17.138684" height="0.749179078"></rect>
                                    <rect id="Rectangle-91-Copy-2" fill="#D8E5EF" x="5.59337135" y="11.9868653" width="17.138684" height="0.749179078"></rect>
                                    <rect id="Rectangle-91-Copy-5" fill="#D8E5EF" x="5.59337135" y="20.9770142" width="17.138684" height="0.749179078"></rect>
                                    <rect id="Rectangle-85" fill="#528FCC" x="22.7463768" y="2.24753723" width="0.745782846" height="4.49507447"></rect>
                                    <rect id="Rectangle-86" fill="#528FCC" x="23.4921597" y="5.99343263" width="3.72891423" height="0.749179078"></rect>
                                    <polygon id="Rectangle-84" fill="#D8E5EF" points="23.4921597 1.48825265 27.9668567 5.99343263 23.4921597 5.99343263"></polygon>
                                </g>
                            </g>
                        </g>
                        <polygon id="Path-2" fill="#C9E0F5" points="28.2530292 16.1073502 24.1512236 18.3548874 26.9479092 41.2048493 28.2530292 41.2048493"></polygon>
                        <g id="Group-2" transform="translate(26.083715, 8.240970)">
                            <g id="Group-6" transform="translate(15.881953, 19.000000) scale(-1, 1) translate(-15.881953, -19.000000) translate(0.881953, 0.000000)">
                                <path d="M1.03028697e-13,1.68230481 C1.03028697e-13,0.753193518 0.741561994,0 1.68077078,0 L23.902406,0 L29.4584224,5.67783363 L29.4584224,35.7727018 C29.4584224,36.7039931 28.7006293,37.4589539 27.7795198,37.4589539 L1.67890263,37.4589539 C0.751670313,37.4589539 1.03028697e-13,36.7106971 1.03028697e-13,35.7766491 L1.03028697e-13,1.68230481 Z" id="Rectangle-82-Copy" fill="#528FCC"></path>
                                <path d="M1.49156569,2.33316267 C1.49156569,1.87211287 1.87477794,1.49835816 2.33010568,1.49835816 L23.5699815,1.49835816 L27.9668567,6.03378132 L27.9668567,35.1289467 C27.9668567,35.5882538 27.5925937,35.9605958 27.1307767,35.9605958 L2.3276457,35.9605958 C1.86589146,35.9605958 1.49156569,35.585314 1.49156569,35.1257912 L1.49156569,2.33316267 Z" id="Rectangle-82" fill="#FFFFFF"></path>
                                <rect id="Rectangle-91" fill="#D8E5EF" x="19.7632454" y="11.2376862" width="3.72891423" height="0.280942154"></rect>
                                <rect id="Rectangle-91-Copy" fill="#D8E5EF" x="19.7632454" y="13.3447523" width="3.72891423" height="0.280942154"></rect>
                                <rect id="Rectangle-91-Copy-2" fill="#D8E5EF" x="19.7632454" y="15.4518185" width="3.72891423" height="0.280942154"></rect>
                                <rect id="Rectangle-85" fill="#528FCC" x="22.7463768" y="2.24753723" width="0.745782846" height="4.49507447"></rect>
                                <rect id="Rectangle-86" fill="#528FCC" x="23.4921597" y="5.99343263" width="3.72891423" height="0.749179078"></rect>
                                <polygon id="Rectangle-84" fill="#D8E5EF" points="23.4921597 1.48825265 27.9668567 5.99343263 23.4921597 5.99343263"></polygon>
                            </g>
                            <g id="Group-11" opacity="0.6" transform="translate(5.152445, 5.244254)">
                                <use id="Rectangle-10" stroke="#5088BF" mask="url(#mask-10)" stroke-width="1.67832168" fill="#FFFFFF" xlink:href="#path-9"></use>
                                <use id="Rectangle-11" stroke="#5088BF" mask="url(#mask-12)" stroke-width="1.67832168" fill="#EEF2F8" xlink:href="#path-11"></use>
                                <path d="M8.94939416,2.24753723 L10.8138513,2.24753723" id="Path-5" stroke="#5088BF" stroke-width="0.839160839"></path>
                                <ellipse id="Oval-4" stroke="#5088BF" stroke-width="0.5" fill="#D8D8D8" cx="9.88034569" cy="14.4216973" rx="0.185168686" ry="0.18729477"></ellipse>
                                <ellipse id="Oval-5" stroke="#5088BF" stroke-width="0.839160839" fill="#FFFFFF" cx="3.35602281" cy="8.24096986" rx="3.35602281" ry="3.37130585"></ellipse>
                                <polyline id="Path-6" stroke="#5088BF" stroke-width="0.839160839" points="4.8475885 5.24425355 10.0680684 8.24096986 4.8475885 11.2376862"></polyline>
                                <polygon id="*" fill="#5088BF" points="3.15483171 6.7426117 3.20768354 8.03674159 2.02512394 7.58545527 1.87978142 8.02346846 3.09537341 8.38847946 2.27617011 9.3640543 2.63291993 9.64942653 3.38605845 8.60084949 4.13919696 9.64942653 4.49594678 9.3640543 3.67674349 8.38847946 4.89233547 8.02346846 4.74699295 7.58545527 3.57103984 8.03674159 3.61728518 6.7426117"></polygon>
                            </g>
                            <path d="M10.7458166,25.4720887 L26.7801478,25.4720887" id="Path-7" stroke="#5088BF" stroke-width="0.839160839" opacity="0.6"></path>
                            <path d="M10.7458166,28.0942154 L26.7801478,28.0942154" id="Path-7-Copy" stroke="#5088BF" stroke-width="0.839160839" opacity="0.6"></path>
                            <path d="M10.7458166,30.7163422 L26.7801478,30.7163422" id="Path-7-Copy-2" stroke="#5088BF" stroke-width="0.839160839" opacity="0.6"></path>
                            <path d="M22.7323132,11.9868653 L26.7801478,11.9868653" id="Path-7" stroke="#AED6C4" stroke-width="0.839160839"></path>
                            <path d="M22.7323132,14.2344025 L26.7801478,14.2344025" id="Path-7-Copy" stroke="#ECADAB" stroke-width="0.839160839"></path>
                            <path d="M22.7323132,16.4819397 L26.7801478,16.4819397" id="Path-7-Copy-2" stroke="#AED6C4" stroke-width="0.839160839"></path>
                            <rect id="Rectangle-12" fill="#AED6C4" x="22.6783421" y="5.61884309" width="4.10180565" height="4.12048493"></rect>
                        </g>
                        <g id="Group" transform="translate(0.373256, 28.790538)">
                            <ellipse id="Oval-3" fill="#EEF2F8" cx="12.5589413" cy="5.88752904" rx="5.86083927" ry="5.88752904"></ellipse>
                            <path d="M6.27947065,7.28581718 C6.27947065,6.51326298 6.89467788,5.88752904 7.65423542,5.88752904 C8.41379295,5.88752904 9.02900018,6.51326298 9.02900018,7.28581718 C9.02900018,8.05837139 8.41379295,8.68410533 7.65423542,8.68410533 C6.89467788,8.68410533 6.27947065,8.05837139 6.27947065,7.28581718 Z" id="Path-Copy-2" fill="#F5B1AE" opacity="0.3"></path>
                            <path d="M15.9079923,7.28581718 C15.9079923,6.51326298 16.5231995,5.88752904 17.2827571,5.88752904 C18.0423146,5.88752904 18.6575218,6.51326298 18.6575218,7.28581718 C18.6575218,8.05837139 18.0423146,8.68410533 17.2827571,8.68410533 C16.5231995,8.68410533 15.9079923,8.05837139 15.9079923,7.28581718 Z" id="Path-Copy-3" fill="#F5B1AE" opacity="0.3"></path>
                            <ellipse id="Oval-3" stroke="#5088BF" stroke-width="0.839160839" cx="12.5589413" cy="5.88752904" rx="5.86083927" ry="5.88752904"></ellipse>
                            <path d="M20.837526,17.92292 L8.80352052,17.92292 C6.48853503,17.92292 4.60494514,19.8038376 4.60494514,22.1240669 L4.60494514,30.6992586 L24.0649613,30.6992586 L24.0649613,22.5774783 L30.0526585,19.9254809 L36.0403558,10.9139569 L33.5454819,8.41075577 L28.0567594,14.9190787 L20.837526,17.92292 Z" id="Combined-Shape-Copy-3" fill="#C9E0F5"></path>
                            <path d="M18.3257377,15.3996933 L6.29173227,15.3996933 C3.97674677,15.3996933 2.09315688,17.28192 2.09315688,19.6037642 L2.09315688,30.2787208 L21.553173,30.2787208 L21.553173,20.0542516 L27.5408703,17.4022542 L33.5285675,8.39073016 L31.0336937,5.88752904 L25.5449712,12.395852 L18.3257377,15.3996933 Z" id="Combined-Shape" stroke="#5088BF" stroke-width="0.839160839" stroke-linecap="round" stroke-linejoin="round" fill="#FFFFFF"></path>
                            <ellipse id="Oval-2" stroke="#5088BF" stroke-width="0.839160839" fill="#FFFFFF" cx="34.704918" cy="3.99868588" rx="1.99453552" ry="1.99934294"></ellipse>
                            <rect id="Rectangle-2" fill="#C9E0F5" x="5.61035034" y="21.9927723" width="2.74952953" height="8.39724034"></rect>
                            <path d="M5.86083927,29.9405461 L5.86083927,21.867965" id="Path-4" stroke="#5088BF" stroke-width="0.839160839" stroke-linecap="round"></path>
                            <path d="M3.55271368e-15,30.2787208 L26.3737767,30.2787208" id="Path-3" stroke="#AED6C4" stroke-width="1.67832168" stroke-linecap="round"></path>
                        </g>
                        <path d="M13.3746469,6.40480698 L13.3746469,7.45383355 C13.3746469,7.68099074 13.1908271,7.86564756 12.9646997,7.86564756 C12.7385723,7.86564756 12.5547526,7.68099074 12.5547526,7.45383355 L12.5547526,6.40480698 L11.5099709,6.40480698 C11.2838435,6.40480698 11.1000238,6.22015016 11.1000238,5.99299297 C11.1000238,5.76583577 11.2838435,5.58117896 11.5099709,5.58117896 L12.5547526,5.58117896 L12.5547526,4.53229894 C12.5547526,4.30514175 12.7385723,4.12048493 12.9646997,4.12048493 C13.1908271,4.12048493 13.3746469,4.30514175 13.3746469,4.53229894 L13.3746469,5.58117896 L14.4189908,5.58117896 C14.6451183,5.58117896 14.828938,5.76583577 14.828938,5.99299297 C14.828938,6.22015016 14.6451183,6.40480698 14.4189908,6.40480698 L13.3746469,6.40480698 Z" id="Combined-Shape" fill="#AED6C4" opacity="0.6"></path>
                        <path d="M38.3399574,53.9595095 L38.3399574,54.4841254 C38.3399574,54.5977262 38.2480296,54.6900727 38.1349438,54.6900727 C38.0218579,54.6900727 37.9299301,54.5977262 37.9299301,54.4841254 L37.9299301,53.9595095 L37.4074371,53.9595095 C37.2943512,53.9595095 37.2024234,53.867163 37.2024234,53.7535622 C37.2024234,53.6399614 37.2943512,53.5476149 37.4074371,53.5476149 L37.9299301,53.5476149 L37.9299301,53.0230723 C37.9299301,52.9094715 38.0218579,52.817125 38.1349438,52.817125 C38.2480296,52.817125 38.3399574,52.9094715 38.3399574,53.0230723 L38.3399574,53.5476149 L38.8622316,53.5476149 C38.9753174,53.5476149 39.0672453,53.6399614 39.0672453,53.7535622 C39.0672453,53.867163 38.9753174,53.9595095 38.8622316,53.9595095 L38.3399574,53.9595095 Z" id="Combined-Shape-Copy" fill="#ECADAB" opacity="0.6"></path>
                        <path d="M15.568808,12.2133935 L13.3373723,10.6476447 L13.3373723,10.1119938 L15.568808,8.44323515 L15.568808,9.24671153 L13.9459457,10.3592173 L15.568808,11.471723 L15.568808,12.2133935 Z M15.7426861,13.0374719 L16.4961579,7.86638032 L16.9743227,7.86638032 L16.2208509,13.0374719 L15.7426861,13.0374719 Z M17.133711,12.2133935 L17.133711,11.4511211 L18.7565733,10.3592173 L17.133711,9.22610957 L17.133711,8.44323515 L19.3651467,10.1119938 L19.3651467,10.6270427 L17.133711,12.2133935 Z" id="&lt;/&gt;" fill="#C9E0F5"></path>
                        <path d="M32.0359624,57.0144837 C32.2830569,57.0210158 32.4066022,56.7434058 32.4066022,56.1816454 C32.4131047,55.5937566 32.2895593,55.3096146 32.0359624,55.3292109 C31.7823654,55.3226788 31.6555689,55.6068208 31.6555689,56.1816454 C31.6555689,56.7434058 31.7823654,57.0210158 32.0359624,57.0144837 Z M32.0359624,57.2594361 C31.509261,57.252904 31.2426631,56.890378 31.2361606,56.1718473 C31.2491656,55.4533165 31.5157635,55.0842585 32.0359624,55.0646623 C32.5496588,55.0711944 32.8097543,55.4402523 32.8162568,56.1718473 C32.8227593,56.9034422 32.5626637,57.2659682 32.0359624,57.2594361 Z M33.6745807,57.2202437 L33.6745807,55.6721443 C33.518521,55.8027863 33.2974398,55.8975003 33.0113304,55.9562891 L33.0113304,55.7309329 C33.3364547,55.5806946 33.5575359,55.3716707 33.6745807,55.1038546 L34.0744815,55.1038546 L34.0744815,57.2202437 L33.6745807,57.2202437 Z M35.2254158,57.0144837 C35.4725103,57.0210158 35.5960557,56.7434058 35.5960557,56.1816454 C35.6025581,55.5937566 35.4790128,55.3096146 35.2254158,55.3292109 C34.9718189,55.3226788 34.8450223,55.6068208 34.8450223,56.1816454 C34.8450223,56.7434058 34.9718189,57.0210158 35.2254158,57.0144837 Z M35.2254158,57.2594361 C34.6987144,57.252904 34.4321165,56.890378 34.425614,56.1718473 C34.438619,55.4533165 34.7052169,55.0842585 35.2254158,55.0646623 C35.7391122,55.0711944 35.9992077,55.4402523 36.0057102,56.1718473 C36.0122127,56.9034422 35.7521172,57.2659682 35.2254158,57.2594361 Z M36.8640341,57.2202437 L36.8640341,55.6721443 C36.7079744,55.8027863 36.4868932,55.8975003 36.2007838,55.9562891 L36.2007838,55.7309329 C36.5259081,55.5806946 36.7469893,55.3716707 36.8640341,55.1038546 L37.263935,55.1038546 L37.263935,57.2202437 L36.8640341,57.2202437 Z" id="0101" fill="#C9E0F5"></path>
                        <path d="M63.6525704,43.7936424 L63.089214,43.7936424 C63.0067712,43.5451876 62.8327278,43.4209621 62.5670788,43.4209621 C62.2098265,43.4393661 62.026623,43.6924181 62.0174627,44.1801256 C62.026623,44.6770352 62.2693677,44.9300871 62.745704,44.9392892 C63.0296737,44.9392892 63.3319595,44.7736551 63.6525704,44.4423821 L63.6525704,44.8702743 C63.405242,45.1463351 63.0525752,45.2843635 62.5945596,45.2843635 C61.8617345,45.2475554 61.4770071,44.8794798 61.4403659,44.1801256 C61.4495262,43.4531654 61.8250934,43.0758879 62.5670788,43.0482818 C63.1441785,43.0574838 63.5060054,43.3059349 63.6525704,43.7936424 Z M63.9685996,43.9040662 L63.9685996,43.5451888 L64.7930237,43.5451888 L64.7930237,42.7032075 L65.2464569,42.7032075 L65.2464569,43.5451888 L66.0571406,43.5451888 L66.0571406,43.9040662 L65.2464569,43.9040662 L65.2464569,44.7874565 L64.7930237,44.7874565 L64.7930237,43.9040662 L63.9685996,43.9040662 Z M66.3594294,43.9040662 L66.3594294,43.5451888 L67.1838534,43.5451888 L67.1838534,42.7032075 L67.6372867,42.7032075 L67.6372867,43.5451888 L68.4479703,43.5451888 L68.4479703,43.9040662 L67.6372867,43.9040662 L67.6372867,44.7874565 L67.1838534,44.7874565 L67.1838534,43.9040662 L66.3594294,43.9040662 Z" id="c++" fill="#C9E0F5"></path>
                    </g>
                </g>
            </g>
        </g>
    </g>
</svg>