<?xml version="1.0" encoding="UTF-8"?>
<svg width="165px" height="92px" viewBox="0 0 165 92" version="1.1" xmlns="http://www.w3.org/2000/svg" xmlns:xlink="http://www.w3.org/1999/xlink">
    <!-- Generator: Sketch 41.2 (35397) - http://www.bohemiancoding.com/sketch -->
    <title>Group 3 Copy</title>
    <desc>Created with Sketch.</desc>
    <defs>
        <rect id="path-1" x="0" y="0" width="165" height="92" rx="4"></rect>
        <mask id="mask-2" maskContentUnits="userSpaceOnUse" maskUnits="objectBoundingBox" x="0" y="0" width="165" height="92" fill="white">
            <use xlink:href="#path-1"></use>
        </mask>
    </defs>
    <g id="mockup" stroke="none" stroke-width="1" fill="none" fill-rule="evenodd">
        <g id="社区首页" transform="translate(-895.000000, -1283.000000)">
            <g id="zb" transform="translate(101.000000, 1022.000000)">
                <g id="Group-3-Copy" transform="translate(794.000000, 261.000000)">
                    <use id="Rectangle" stroke="#ECECEC" mask="url(#mask-2)" stroke-width="2" fill="#FAFAFA" xlink:href="#path-1"></use>
                    <rect id="Rectangle" fill="#528FCC" x="0" y="67" width="165" height="25" rx="4"></rect>
                    <path d="M40.654,78.918 C39.898,79.17 39.1,79.408 38.26,79.632 L38.26,77.434 L41.396,77.434 C41.508,78.456 41.662,79.352 41.858,80.108 C41.984,80.612 42.124,81.088 42.292,81.55 C41.312,82.446 40.164,83.132 38.848,83.608 L39.59,84.756 C40.794,84.294 41.872,83.65 42.838,82.838 C43.048,83.286 43.286,83.664 43.552,84 C44.21,84.826 44.84,85.246 45.442,85.246 C46.114,85.246 46.632,84.238 46.982,82.25 L45.806,81.634 C45.624,83.09 45.442,83.818 45.26,83.818 C45.036,83.818 44.714,83.496 44.294,82.866 C44.126,82.614 43.972,82.292 43.804,81.914 C44.672,80.99 45.414,79.884 46.044,78.596 L44.896,77.994 C44.448,78.918 43.916,79.744 43.314,80.472 C43.244,80.248 43.174,80.01 43.118,79.744 C42.95,79.128 42.824,78.358 42.74,77.434 L46.856,77.434 L46.856,76.16 L42.628,76.16 C42.544,75.124 42.502,73.92 42.502,72.548 L41.158,72.548 C41.158,73.864 41.2,75.068 41.284,76.16 L38.26,76.16 L38.26,74.382 C38.918,74.2 39.548,74.004 40.15,73.794 L39.688,72.548 C38.176,73.164 36.44,73.57 34.48,73.78 L34.76,75.04 C35.502,74.928 36.216,74.816 36.916,74.676 L36.916,76.16 L34.144,76.16 L34.144,77.434 L36.916,77.434 L36.916,79.94 C36.034,80.122 35.11,80.29 34.144,80.444 L34.326,81.774 C35.222,81.634 36.076,81.466 36.916,81.284 L36.916,83.566 C36.916,83.902 36.734,84.07 36.384,84.07 C35.936,84.07 35.474,84.042 34.984,83.986 L35.278,85.26 L36.846,85.26 C37.784,85.26 38.26,84.798 38.26,83.902 L38.26,80.976 C39.1,80.752 39.898,80.528 40.654,80.276 L40.654,78.918 Z M44.042,72.674 L43.146,73.528 C44.21,74.242 45.022,74.9 45.61,75.516 L46.576,74.564 C45.876,73.934 45.036,73.304 44.042,72.674 Z M48.27,72.996 L48.27,74.186 L52.288,74.186 L52.288,75.208 L49.11,75.208 L49.11,78.918 L52.652,78.918 C52.47,79.24 52.274,79.562 52.078,79.898 L48.088,79.898 L48.088,81.13 L51.322,81.13 C51.042,81.578 50.734,82.026 50.426,82.474 C51.504,82.726 52.582,83.006 53.66,83.328 C52.428,83.748 50.678,84.07 48.438,84.322 L48.942,85.498 C51.938,85.092 54.094,84.546 55.41,83.874 C56.908,84.364 58.406,84.924 59.89,85.554 L60.716,84.462 C59.316,83.93 57.944,83.454 56.614,83.048 C57.244,82.488 57.692,81.858 57.972,81.13 L60.898,81.13 L60.898,79.898 L53.59,79.898 C53.758,79.59 53.94,79.268 54.15,78.918 L59.89,78.918 L59.89,75.208 L56.712,75.208 L56.712,74.186 L60.73,74.186 L60.73,72.996 L48.27,72.996 Z M55.172,82.628 C54.192,82.362 53.24,82.138 52.302,81.942 L52.848,81.13 L56.586,81.13 C56.306,81.718 55.83,82.208 55.172,82.628 Z M55.438,75.208 L53.562,75.208 L53.562,74.186 L55.438,74.186 L55.438,75.208 Z M58.616,77.784 L56.712,77.784 L56.712,76.342 L58.616,76.342 L58.616,77.784 Z M55.438,77.784 L53.562,77.784 L53.562,76.342 L55.438,76.342 L55.438,77.784 Z M52.288,77.784 L50.384,77.784 L50.384,76.342 L52.288,76.342 L52.288,77.784 Z M72.07,72.422 L71.23,73.234 C71.818,73.682 72.294,74.13 72.672,74.55 L70.516,74.55 C70.488,73.906 70.46,73.22 70.46,72.492 L69.116,72.492 C69.116,73.206 69.116,73.892 69.144,74.55 L63.376,74.55 L63.376,79.212 C63.334,81.494 62.872,83.272 62.004,84.546 L63.012,85.442 C64.076,83.874 64.65,81.802 64.706,79.212 L64.706,79.128 L66.82,79.128 C66.792,80.584 66.75,81.508 66.666,81.872 C66.582,82.18 66.428,82.334 66.176,82.348 C65.784,82.348 65.322,82.32 64.762,82.292 L65.168,83.496 C65.602,83.538 65.994,83.566 66.33,83.566 C67.058,83.552 67.534,83.258 67.758,82.67 C67.982,81.998 68.108,80.402 68.136,77.868 L64.706,77.868 L64.706,75.824 L69.214,75.824 C69.312,77.532 69.508,78.946 69.816,80.08 C69.97,80.668 70.138,81.214 70.334,81.718 C69.41,82.866 68.276,83.734 66.932,84.336 L67.688,85.456 C68.92,84.91 70.012,84.112 70.95,83.062 C71.132,83.398 71.328,83.706 71.552,83.986 C72.224,84.812 72.868,85.232 73.484,85.232 C74.156,85.232 74.674,84.252 75.024,82.32 L73.82,81.676 C73.638,83.048 73.456,83.734 73.274,83.734 C73.05,83.734 72.714,83.412 72.294,82.796 C72.14,82.558 71.986,82.278 71.832,81.942 C72.7,80.682 73.4,79.142 73.96,77.35 L72.742,76.832 C72.35,78.162 71.86,79.338 71.272,80.374 C71.202,80.15 71.132,79.912 71.076,79.674 C70.838,78.764 70.67,77.476 70.572,75.824 L74.744,75.824 L74.744,74.55 L73.064,74.55 L73.708,73.906 C73.26,73.402 72.714,72.912 72.07,72.422 Z M78.216,72.842 L77.208,73.57 C77.964,74.354 78.58,75.082 79.056,75.74 L80.092,75.026 C79.644,74.382 79.028,73.654 78.216,72.842 Z M83.242,78.722 L82.178,79.394 C83.074,80.472 83.774,81.452 84.306,82.334 L85.482,81.522 C84.95,80.724 84.208,79.786 83.242,78.722 Z M81.1,72.52 L81.1,74.494 C81.086,74.97 81.058,75.432 81.03,75.88 L76.648,75.88 L76.648,77.182 L80.89,77.182 C80.694,78.484 80.4,79.618 79.994,80.584 C79.322,82.054 78.048,83.258 76.172,84.21 L76.914,85.386 C78.818,84.49 80.176,83.23 81.002,81.592 C81.576,80.402 81.982,78.932 82.206,77.182 L86.7,77.182 C86.7,78.876 86.644,80.444 86.56,81.886 C86.462,83.314 86.098,84.056 85.454,84.112 C84.824,84.112 84.124,84.07 83.368,84 L83.718,85.288 C84.208,85.33 84.81,85.358 85.538,85.358 C86.49,85.358 87.148,84.798 87.526,83.678 C87.876,82.558 88.058,79.968 88.058,75.88 L82.332,75.88 C82.36,75.432 82.388,74.97 82.402,74.494 L82.402,72.52 L81.1,72.52 Z M92.188,77.49 L94.148,77.49 L94.148,79.534 L92.188,79.534 L92.188,77.49 Z M94.148,76.3 L92.188,76.3 L92.188,74.228 L94.148,74.228 L94.148,76.3 Z M92.16,80.738 L94.148,80.738 L94.148,83.552 C94.148,84.042 93.994,84.294 93.7,84.294 C93.364,84.294 93.014,84.266 92.622,84.224 L92.944,85.4 L94.064,85.4 C94.918,85.4 95.352,84.924 95.352,83.972 L95.352,73.024 L90.998,73.024 L90.998,79.898 C90.984,81.788 90.704,83.342 90.144,84.56 L91.152,85.47 C91.726,84.224 92.062,82.642 92.16,80.738 Z M97.55,79.352 L97.732,79.352 C98.04,80.654 98.6,81.83 99.412,82.866 C98.894,83.454 98.278,83.958 97.55,84.35 L97.55,79.352 Z M97.55,84.392 L98.236,85.428 C99.02,85.008 99.706,84.476 100.28,83.832 C100.868,84.406 101.568,84.938 102.366,85.414 L103.024,84.294 C102.268,83.846 101.596,83.356 101.022,82.81 C101.61,81.844 102.03,80.668 102.282,79.296 L102.282,78.176 L97.55,78.176 L97.55,74.228 L100.91,74.228 C100.882,75.166 100.826,75.754 100.742,75.992 C100.658,76.188 100.546,76.314 100.406,76.356 C100.266,76.398 100.042,76.426 99.748,76.426 C99.356,76.426 99.048,76.412 98.824,76.412 L99.174,77.532 L100.35,77.532 C101.246,77.532 101.778,77.238 101.946,76.65 C102.114,76.048 102.198,74.844 102.198,73.024 L96.304,73.024 L96.304,85.456 L97.55,85.456 L97.55,84.392 Z M98.866,79.352 L101.106,79.352 C100.882,80.276 100.56,81.102 100.14,81.83 C99.566,81.088 99.146,80.262 98.866,79.352 Z M108.134,72.464 C107.56,73.822 106.454,74.97 104.816,75.908 L105.628,76.972 C106.202,76.622 106.72,76.244 107.196,75.838 C107.77,76.314 108.386,76.762 109.058,77.154 C107.602,77.7 105.922,78.092 104.046,78.33 L104.662,79.576 C106.874,79.24 108.834,78.694 110.514,77.938 C112.25,78.764 114.21,79.296 116.38,79.548 L116.982,78.302 C115.134,78.134 113.468,77.756 111.97,77.196 C113.16,76.496 114.182,75.656 115.022,74.69 L115.022,73.612 L109.03,73.612 C109.198,73.318 109.352,72.996 109.492,72.66 L108.134,72.464 Z M110.5,76.538 C109.618,76.09 108.806,75.558 108.078,74.956 C108.092,74.928 108.12,74.9 108.162,74.858 L113.076,74.858 C112.32,75.502 111.466,76.062 110.5,76.538 Z M109.492,78.792 C109.492,79.296 109.436,79.772 109.352,80.22 L105.012,80.22 L105.012,81.41 L108.946,81.41 C108.862,81.592 108.75,81.774 108.638,81.956 C107.938,82.922 106.44,83.734 104.158,84.406 L105.04,85.484 C107.63,84.658 109.268,83.622 109.968,82.362 C110.136,82.068 110.276,81.746 110.402,81.41 L114.196,81.41 C114.154,82.642 114.042,83.412 113.86,83.706 C113.678,83.986 113.23,84.14 112.516,84.154 C112.068,84.126 111.48,84.098 110.752,84.07 L111.088,85.274 C111.76,85.316 112.348,85.344 112.824,85.344 C113.804,85.344 114.504,85.092 114.896,84.616 C115.288,84.14 115.498,82.67 115.526,80.22 L110.696,80.22 C110.766,79.772 110.808,79.296 110.808,78.792 L109.492,78.792 Z M121.756,80.22 L121.756,83.818 L127.23,83.818 L127.23,80.122 L121.882,80.122 C122.624,79.576 123.282,78.96 123.856,78.288 L122.918,77.462 C122.162,78.288 121.238,79.016 120.118,79.632 L120.118,77.434 L128.854,77.434 L128.854,83.482 C128.854,83.958 128.672,84.21 128.336,84.21 L126.992,84.168 L127.328,85.372 L128.756,85.372 C129.666,85.372 130.128,84.826 130.128,83.762 L130.128,76.258 L127.118,76.258 C127.356,75.824 127.58,75.348 127.804,74.816 L130.744,74.816 L130.744,73.542 L125.228,73.542 C125.088,73.122 124.962,72.73 124.822,72.38 L123.352,72.604 C123.492,72.884 123.632,73.206 123.758,73.542 L118.256,73.542 L118.256,74.816 L121.098,74.816 C121.35,75.264 121.56,75.754 121.756,76.258 L118.844,76.258 L118.844,85.344 L120.118,85.344 L120.118,79.688 L120.944,80.752 C121.224,80.584 121.49,80.402 121.756,80.22 Z M125.942,82.642 L123.044,82.642 L123.044,81.312 L125.942,81.312 L125.942,82.642 Z M125.984,77.448 L125.088,78.302 C126.264,79.17 127.188,79.968 127.832,80.724 L128.826,79.744 C128.056,78.988 127.104,78.218 125.984,77.448 Z M123.114,76.258 C122.946,75.726 122.75,75.25 122.554,74.816 L126.348,74.816 C126.138,75.306 125.914,75.782 125.662,76.258 L123.114,76.258 Z" id="我要成为服务商" fill="#FFFFFF"></path>
                    <g id="ic_02" transform="translate(41.250000, 4.000000)">
                        <path d="M70.923365,52.8759348 L72.3340336,56.7100671 M70.1095177,54.1127517 L71.5201863,57.946884 M69.2956704,55.3495686 L70.7063391,59.1837009" id="Shape" stroke="#FFFFFF" stroke-width="0.805369128"></path>
                        <path d="M0.884551119,50.2857002 C1.15782844,50.2922783 1.29446505,50.0127133 1.29446505,49.4469969 C1.30165656,48.854968 1.16501995,48.568825 0.884551119,48.5885593 C0.604082288,48.5819812 0.463849977,48.8681242 0.463849977,49.4469969 C0.463849977,50.0127133 0.604082288,50.2922783 0.884551119,50.2857002 Z M0.884551119,50.5323777 C0.302038933,50.5257996 0.00719150847,50.1607206 6.21724894e-15,49.4371298 C0.0143830169,48.7135389 0.309230441,48.3418819 0.884551119,48.3221477 C1.45268029,48.3287257 1.74033631,48.7003827 1.74752782,49.4371298 C1.75471933,50.1738768 1.4670633,50.5389558 0.884551119,50.5323777 Z M2.69680219,50.4929093 L2.69680219,48.9339077 C2.52420599,49.0654697 2.27969837,49.1608507 1.963272,49.2200536 L1.963272,48.9931103 C2.32284742,48.8418141 2.56735504,48.6313181 2.69680219,48.361616 L3.13907775,48.361616 L3.13907775,50.4929093 L2.69680219,50.4929093 Z M4.41196838,50.2857002 C4.68524571,50.2922783 4.82188232,50.0127133 4.82188232,49.4469969 C4.82907383,48.854968 4.69243721,48.568825 4.41196838,48.5885593 C4.13149955,48.5819812 3.99126724,48.8681242 3.99126724,49.4469969 C3.99126724,50.0127133 4.13149955,50.2922783 4.41196838,50.2857002 Z M4.41196838,50.5323777 C3.8294562,50.5257996 3.53460877,50.1607206 3.52741727,49.4371298 C3.54180028,48.7135389 3.83664771,48.3418819 4.41196838,48.3221477 C4.98009755,48.3287257 5.26775358,48.7003827 5.27494509,49.4371298 C5.28213659,50.1738768 4.99448057,50.5389558 4.41196838,50.5323777 Z M6.22421946,50.4929093 L6.22421946,48.9339077 C6.05162325,49.0654697 5.80711563,49.1608507 5.49068926,49.2200536 L5.49068926,48.9931103 C5.85026468,48.8418141 6.0947723,48.6313181 6.22421946,48.361616 L6.66649502,48.361616 L6.66649502,50.4929093 L6.22421946,50.4929093 Z" id="0101" fill="#C9E0F5"></path>
                        <path d="M34.0432973,3.71385122 C24.8165734,5.34152793 16.9263262,10.3916269 12.0213953,17.3591671 M68.6719789,16.9319142 C63.8945098,10.3857197 56.4513251,5.5992963 47.7577373,3.86447297" id="Oval-7" stroke="#5088BF" stroke-width="0.805369128" stroke-dasharray="1.610738237698873" opacity="0.5"></path>
                        <g id="Group-2" transform="translate(7.633378, 8.407348)">
                            <path d="M5.63672933,26.1337643 C4.74732275,12.5255048 16.1209462,0.836674188 30.9982926,0.0492161287 C45.8756389,-0.73824193 58.6777033,9.62175316 59.5671099,23.2300127 C59.5671099,23.328445 59.5671099,23.4514853 59.5940616,23.5499176" id="Shape" stroke="#A7C3DF" stroke-width="0.805369128"></path>
                            <path d="M36.1730217,5.80750319 L36.4425389,4.2818032 C46.5224801,5.68446286 54.1498153,13.3621789 54.6888495,22.6640273 M10.5149896,25.0264014 C10.0298588,16.5120112 15.4471534,8.63743059 24.0447503,5.33994996 M12.0512374,9.178808 L13.0484508,9.941658 M12.0512374,9.178808 L13.0484508,9.941658 M13.5874851,7.62849995 L14.0187125,7.94840478 M17.1451114,4.87239674 L17.4954837,5.26612577 M21.1878685,2.70688708 L21.4573857,3.1744403 M25.5540463,1.23040322 L25.7427083,1.7225645 M30.1627894,0.467553223 L30.2436446,0.984322574 M34.825436,0.467553223 L34.825436,0.984322574 M39.4341792,1.18118709 L39.3263723,1.69795644 M43.8273086,2.63306288 L43.6386466,3.10061611 M47.8970175,4.74935642 L47.6005487,5.19230158 M51.4815955,7.4562435 L51.1042715,7.84997253 M15.3393465,6.15201609 L16.1748497,7.08712253 M19.16649,3.69120965 L19.8133311,4.74935642 M23.3709574,1.89482095 L23.8291366,3.02679191 M27.8988454,0.762849995 L28.1144591,1.96864515 M32.5345403,0.39372903 L32.5345403,1.59952418 M37.1971869,0.73824193 L36.9546215,1.94403708 M41.6981232,1.84560483 L41.2399441,2.97757579 M45.9295424,3.64199352 L45.2827012,4.67553223 M49.7836375,6.07819189 L48.9211827,6.98869027 M53.0717467,9.08037574 L52.0745332,9.84322574" id="Shape" stroke="#A7C3DF" stroke-width="0.805369128"></path>
                            <path d="M26.7938251,4.10954675 L34.5020155,18.5052644 C34.8793395,19.3665466 33.4239469,20.8676386 32.4806369,21.2367595 C31.5373269,21.6058805 29.354238,21.4582321 28.9499623,20.5723418 C28.8960589,20.4739095 28.8691071,20.3508692 28.8421554,20.2278289 L26.7938251,4.10954675 L26.7938251,4.10954675 Z" id="Shape" fill="#A7C3DF"></path>
                            <path d="M0.0577244477,14.1387637 L66.5206522,14.1387637 L66.5206522,33.8744313 C66.5206522,34.9571861 65.5503904,35.8430764 64.364515,35.8430764 L2.2138616,35.8430764 C1.02798617,35.8430764 0.0577244477,34.9571861 0.0577244477,33.8744313 L0.0577244477,14.1387637 Z" id="Shape" stroke="#5088BF" stroke-width="1.61073826" fill="#FFFFFF"></path>
                            <path d="M2.2138616,11.2704935 L64.3375633,11.2704935 C65.5234387,11.2704935 66.4937005,12.1563838 66.4937005,13.2391386 L66.4937005,31.0061611 C66.4937005,32.0889159 65.5234387,32.9748062 64.3375633,32.9748062 L2.2138616,32.9748062 C1.02798617,32.9748062 0.0577244477,32.0889159 0.0577244477,31.0061611 L0.0577244477,13.2391386 C0.0577244477,12.1563838 1.02798617,11.2704935 2.2138616,11.2704935 Z" id="Shape" stroke="#5088BF" stroke-width="1.61073826" fill="#EEF2F8"></path>
                            <path d="M3.04936475,13.8051241 L6.82260476,13.8051241 C7.11907362,13.8051241 7.36163905,14.0265967 7.36163905,14.2972854 L7.36163905,15.675337 C7.36163905,15.9460257 7.11907362,16.1674983 6.82260476,16.1674983 L3.04936475,16.1674983 C2.75289589,16.1674983 2.51033046,15.9460257 2.51033046,15.675337 L2.51033046,14.2972854 C2.51033046,14.0265967 2.75289589,13.8051241 3.04936475,13.8051241 Z M9.05959706,13.8051241 L10.5688931,13.8051241 C10.8653619,13.8051241 11.1079274,14.0265967 11.1079274,14.2972854 L11.1079274,15.675337 C11.1079274,15.9460257 10.8653619,16.1674983 10.5688931,16.1674983 L9.05959706,16.1674983 C8.7631282,16.1674983 8.52056277,15.9460257 8.52056277,15.675337 L8.52056277,14.2972854 C8.52056277,14.0265967 8.7631282,13.8051241 9.05959706,13.8051241 Z M12.8597888,13.8051241 L14.3690848,13.8051241 C14.6655537,13.8051241 14.9081191,14.0265967 14.9081191,14.2972854 L14.9081191,15.675337 C14.9081191,15.9460257 14.6655537,16.1674983 14.3690848,16.1674983 L12.8597888,16.1674983 C12.5633199,16.1674983 12.3207545,15.9460257 12.3207545,15.675337 L12.3207545,14.2972854 C12.3207545,14.0265967 12.5633199,13.8051241 12.8597888,13.8051241 Z M16.6599805,13.8051241 L18.1692765,13.8051241 C18.4657454,13.8051241 18.7083108,14.0265967 18.7083108,14.2972854 L18.7083108,15.675337 C18.7083108,15.9460257 18.4657454,16.1674983 18.1692765,16.1674983 L16.6599805,16.1674983 C16.3635117,16.1674983 16.1209462,15.9460257 16.1209462,15.675337 L16.1209462,14.2972854 C16.1209462,14.0265967 16.3635117,13.8051241 16.6599805,13.8051241 L16.6599805,13.8051241 Z M20.4601723,13.8051241 L21.9694683,13.8051241 C22.2659371,13.8051241 22.5085025,14.0265967 22.5085025,14.2972854 L22.5085025,15.675337 C22.5085025,15.9460257 22.2659371,16.1674983 21.9694683,16.1674983 L20.4601723,16.1674983 C20.1637034,16.1674983 19.921138,15.9460257 19.921138,15.675337 L19.921138,14.2972854 C19.921138,14.0265967 20.1637034,13.8051241 20.4601723,13.8051241 Z M24.260364,13.8051241 L25.76966,13.8051241 C26.0661288,13.8051241 26.3086943,14.0265967 26.3086943,14.2972854 L26.3086943,15.675337 C26.3086943,15.9460257 26.0661288,16.1674983 25.76966,16.1674983 L24.260364,16.1674983 C23.9638951,16.1674983 23.7213297,15.9460257 23.7213297,15.675337 L23.7213297,14.2972854 C23.7213297,14.0265967 23.9638951,13.8051241 24.260364,13.8051241 Z M28.0605557,13.8051241 L29.5698517,13.8051241 C29.8663206,13.8051241 30.108886,14.0265967 30.108886,14.2972854 L30.108886,15.675337 C30.108886,15.9460257 29.8663206,16.1674983 29.5698517,16.1674983 L28.0605557,16.1674983 C27.7640869,16.1674983 27.5215214,15.9460257 27.5215214,15.675337 L27.5215214,14.2972854 C27.5215214,14.0265967 27.7640869,13.8051241 28.0605557,13.8051241 Z M31.8607474,13.8051241 L33.3700435,13.8051241 C33.6665123,13.8051241 33.9090777,14.0265967 33.9090777,14.2972854 L33.9090777,15.675337 C33.9090777,15.9460257 33.6665123,16.1674983 33.3700435,16.1674983 L31.8607474,16.1674983 C31.5642786,16.1674983 31.3217132,15.9460257 31.3217132,15.675337 L31.3217132,14.2972854 C31.3217132,14.0265967 31.5642786,13.8051241 31.8607474,13.8051241 Z M35.6339875,13.8051241 L37.1432835,13.8051241 C37.4397523,13.8051241 37.6823178,14.0265967 37.6823178,14.2972854 L37.6823178,15.675337 C37.6823178,15.9460257 37.4397523,16.1674983 37.1432835,16.1674983 L35.6339875,16.1674983 C35.3375186,16.1674983 35.0949532,15.9460257 35.0949532,15.675337 L35.0949532,14.2972854 C35.0949532,14.0265967 35.3375186,13.8051241 35.6339875,13.8051241 Z M39.4341792,13.8051241 L40.9434752,13.8051241 C41.2399441,13.8051241 41.4825095,14.0265967 41.4825095,14.2972854 L41.4825095,15.675337 C41.4825095,15.9460257 41.2399441,16.1674983 40.9434752,16.1674983 L39.4341792,16.1674983 C39.1377103,16.1674983 38.8951449,15.9460257 38.8951449,15.675337 L38.8951449,14.2972854 C38.8951449,14.0265967 39.1377103,13.8051241 39.4341792,13.8051241 Z M43.2343709,13.8051241 L44.7436669,13.8051241 C45.0401358,13.8051241 45.2827012,14.0265967 45.2827012,14.2972854 L45.2827012,15.675337 C45.2827012,15.9460257 45.0401358,16.1674983 44.7436669,16.1674983 L43.2343709,16.1674983 C42.9379021,16.1674983 42.6953366,15.9460257 42.6953366,15.675337 L42.6953366,14.2972854 C42.6953366,14.0265967 42.9379021,13.8051241 43.2343709,13.8051241 Z M47.0345627,13.8051241 L48.5438587,13.8051241 C48.8403275,13.8051241 49.0828929,14.0265967 49.0828929,14.2972854 L49.0828929,15.675337 C49.0828929,15.9460257 48.8403275,16.1674983 48.5438587,16.1674983 L47.0345627,16.1674983 C46.7380938,16.1674983 46.4955284,15.9460257 46.4955284,15.675337 L46.4955284,14.2972854 C46.4955284,14.0265967 46.7380938,13.8051241 47.0345627,13.8051241 Z M50.8347544,13.8051241 L52.3440504,13.8051241 C52.6405192,13.8051241 52.8830847,14.0265967 52.8830847,14.2972854 L52.8830847,15.675337 C52.8830847,15.9460257 52.6405192,16.1674983 52.3440504,16.1674983 L50.8347544,16.1674983 C50.5382855,16.1674983 50.2957201,15.9460257 50.2957201,15.675337 L50.2957201,14.2972854 C50.2957201,14.0265967 50.5382855,13.8051241 50.8347544,13.8051241 Z M54.6349461,13.8051241 L56.1442421,13.8051241 C56.440711,13.8051241 56.6832764,14.0265967 56.6832764,14.2972854 L56.6832764,15.675337 C56.6832764,15.9460257 56.440711,16.1674983 56.1442421,16.1674983 L54.6349461,16.1674983 C54.3384773,16.1674983 54.0959118,15.9460257 54.0959118,15.675337 L54.0959118,14.2972854 C54.0959118,14.0265967 54.3384773,13.8051241 54.6349461,13.8051241 Z M58.4351378,13.8051241 L59.9444339,13.8051241 C60.2409027,13.8051241 60.4834681,14.0265967 60.4834681,14.2972854 L60.4834681,15.675337 C60.4834681,15.9460257 60.2409027,16.1674983 59.9444339,16.1674983 L58.4351378,16.1674983 C58.138669,16.1674983 57.8961036,15.9460257 57.8961036,15.675337 L57.8961036,14.2972854 C57.8961036,14.0265967 58.138669,13.8051241 58.4351378,13.8051241 L58.4351378,13.8051241 Z M62.2353296,13.8051241 L63.7446256,13.8051241 C64.0410944,13.8051241 64.2836599,14.0265967 64.2836599,14.2972854 L64.2836599,15.675337 C64.2836599,15.9460257 64.0410944,16.1674983 63.7446256,16.1674983 L62.2353296,16.1674983 C61.9388607,16.1674983 61.6962953,15.9460257 61.6962953,15.675337 L61.6962953,14.2972854 C61.6962953,14.0265967 61.9388607,13.8051241 62.2353296,13.8051241 Z M3.04936475,21.433624 L6.82260476,21.433624 C7.11907362,21.433624 7.36163905,21.6550966 7.36163905,21.9257853 L7.36163905,23.3038369 C7.36163905,23.5745256 7.11907362,23.7959982 6.82260476,23.7959982 L3.04936475,23.7959982 C2.75289589,23.7959982 2.51033046,23.5745256 2.51033046,23.3038369 L2.51033046,21.9257853 C2.51033046,21.6550966 2.75289589,21.433624 3.04936475,21.433624 Z M9.05959706,21.433624 L10.5688931,21.433624 C10.8653619,21.433624 11.1079274,21.6550966 11.1079274,21.9257853 L11.1079274,23.3038369 C11.1079274,23.5745256 10.8653619,23.7959982 10.5688931,23.7959982 L9.05959706,23.7959982 C8.7631282,23.7959982 8.52056277,23.5745256 8.52056277,23.3038369 L8.52056277,21.9257853 C8.52056277,21.6550966 8.7631282,21.433624 9.05959706,21.433624 Z M12.8597888,21.433624 L14.3690848,21.433624 C14.6655537,21.433624 14.9081191,21.6550966 14.9081191,21.9257853 L14.9081191,23.3038369 C14.9081191,23.5745256 14.6655537,23.7959982 14.3690848,23.7959982 L12.8597888,23.7959982 C12.5633199,23.7959982 12.3207545,23.5745256 12.3207545,23.3038369 L12.3207545,21.9257853 C12.3207545,21.6550966 12.5633199,21.433624 12.8597888,21.433624 Z M16.6599805,21.433624 L18.1692765,21.433624 C18.4657454,21.433624 18.7083108,21.6550966 18.7083108,21.9257853 L18.7083108,23.3038369 C18.7083108,23.5745256 18.4657454,23.7959982 18.1692765,23.7959982 L16.6599805,23.7959982 C16.3635117,23.7959982 16.1209462,23.5745256 16.1209462,23.3038369 L16.1209462,21.9257853 C16.1209462,21.6550966 16.3635117,21.433624 16.6599805,21.433624 L16.6599805,21.433624 Z M20.4601723,21.433624 L21.9694683,21.433624 C22.2659371,21.433624 22.5085025,21.6550966 22.5085025,21.9257853 L22.5085025,23.3038369 C22.5085025,23.5745256 22.2659371,23.7959982 21.9694683,23.7959982 L20.4601723,23.7959982 C20.1637034,23.7959982 19.921138,23.5745256 19.921138,23.3038369 L19.921138,21.9257853 C19.921138,21.6550966 20.1637034,21.433624 20.4601723,21.433624 Z M24.260364,21.433624 L25.76966,21.433624 C26.0661288,21.433624 26.3086943,21.6550966 26.3086943,21.9257853 L26.3086943,23.3038369 C26.3086943,23.5745256 26.0661288,23.7959982 25.76966,23.7959982 L24.260364,23.7959982 C23.9638951,23.7959982 23.7213297,23.5745256 23.7213297,23.3038369 L23.7213297,21.9257853 C23.7213297,21.6550966 23.9638951,21.433624 24.260364,21.433624 Z M28.0605557,21.433624 L29.5698517,21.433624 C29.8663206,21.433624 30.108886,21.6550966 30.108886,21.9257853 L30.108886,23.3038369 C30.108886,23.5745256 29.8663206,23.7959982 29.5698517,23.7959982 L28.0605557,23.7959982 C27.7640869,23.7959982 27.5215214,23.5745256 27.5215214,23.3038369 L27.5215214,21.9257853 C27.5215214,21.6550966 27.7640869,21.433624 28.0605557,21.433624 Z M31.8607474,21.433624 L33.3700435,21.433624 C33.6665123,21.433624 33.9090777,21.6550966 33.9090777,21.9257853 L33.9090777,23.3038369 C33.9090777,23.5745256 33.6665123,23.7959982 33.3700435,23.7959982 L31.8607474,23.7959982 C31.5642786,23.7959982 31.3217132,23.5745256 31.3217132,23.3038369 L31.3217132,21.9257853 C31.3217132,21.6550966 31.5642786,21.433624 31.8607474,21.433624 Z M35.6339875,21.433624 L37.1432835,21.433624 C37.4397523,21.433624 37.6823178,21.6550966 37.6823178,21.9257853 L37.6823178,23.3038369 C37.6823178,23.5745256 37.4397523,23.7959982 37.1432835,23.7959982 L35.6339875,23.7959982 C35.3375186,23.7959982 35.0949532,23.5745256 35.0949532,23.3038369 L35.0949532,21.9257853 C35.0949532,21.6550966 35.3375186,21.433624 35.6339875,21.433624 Z M39.4341792,21.433624 L40.9434752,21.433624 C41.2399441,21.433624 41.4825095,21.6550966 41.4825095,21.9257853 L41.4825095,23.3038369 C41.4825095,23.5745256 41.2399441,23.7959982 40.9434752,23.7959982 L39.4341792,23.7959982 C39.1377103,23.7959982 38.8951449,23.5745256 38.8951449,23.3038369 L38.8951449,21.9257853 C38.8951449,21.6550966 39.1377103,21.433624 39.4341792,21.433624 Z M43.2343709,21.433624 L44.7436669,21.433624 C45.0401358,21.433624 45.2827012,21.6550966 45.2827012,21.9257853 L45.2827012,23.3038369 C45.2827012,23.5745256 45.0401358,23.7959982 44.7436669,23.7959982 L43.2343709,23.7959982 C42.9379021,23.7959982 42.6953366,23.5745256 42.6953366,23.3038369 L42.6953366,21.9257853 C42.6953366,21.6550966 42.9379021,21.433624 43.2343709,21.433624 Z M47.0345627,21.433624 L48.5438587,21.433624 C48.8403275,21.433624 49.0828929,21.6550966 49.0828929,21.9257853 L49.0828929,23.3038369 C49.0828929,23.5745256 48.8403275,23.7959982 48.5438587,23.7959982 L47.0345627,23.7959982 C46.7380938,23.7959982 46.4955284,23.5745256 46.4955284,23.3038369 L46.4955284,21.9257853 C46.4955284,21.6550966 46.7380938,21.433624 47.0345627,21.433624 Z M50.8347544,21.433624 L52.3440504,21.433624 C52.6405192,21.433624 52.8830847,21.6550966 52.8830847,21.9257853 L52.8830847,23.3038369 C52.8830847,23.5745256 52.6405192,23.7959982 52.3440504,23.7959982 L50.8347544,23.7959982 C50.5382855,23.7959982 50.2957201,23.5745256 50.2957201,23.3038369 L50.2957201,21.9257853 C50.2957201,21.6550966 50.5382855,21.433624 50.8347544,21.433624 Z M54.6349461,21.433624 L56.1442421,21.433624 C56.440711,21.433624 56.6832764,21.6550966 56.6832764,21.9257853 L56.6832764,23.3038369 C56.6832764,23.5745256 56.440711,23.7959982 56.1442421,23.7959982 L54.6349461,23.7959982 C54.3384773,23.7959982 54.0959118,23.5745256 54.0959118,23.3038369 L54.0959118,21.9257853 C54.0959118,21.6550966 54.3384773,21.433624 54.6349461,21.433624 Z M58.4351378,21.433624 L59.9444339,21.433624 C60.2409027,21.433624 60.4834681,21.6550966 60.4834681,21.9257853 L60.4834681,23.3038369 C60.4834681,23.5745256 60.2409027,23.7959982 59.9444339,23.7959982 L58.4351378,23.7959982 C58.138669,23.7959982 57.8961036,23.5745256 57.8961036,23.3038369 L57.8961036,21.9257853 C57.8961036,21.6550966 58.138669,21.433624 58.4351378,21.433624 L58.4351378,21.433624 Z M62.2353296,21.433624 L63.7446256,21.433624 C64.0410944,21.433624 64.2836599,21.6550966 64.2836599,21.9257853 L64.2836599,23.3038369 C64.2836599,23.5745256 64.0410944,23.7959982 63.7446256,23.7959982 L62.2353296,23.7959982 C61.9388607,23.7959982 61.6962953,23.5745256 61.6962953,23.3038369 L61.6962953,21.9257853 C61.6962953,21.6550966 61.9388607,21.433624 62.2353296,21.433624 Z M3.04936475,25.1248337 L6.82260476,25.1248337 C7.11907362,25.1248337 7.36163905,25.3463063 7.36163905,25.616995 L7.36163905,26.9950466 C7.36163905,27.2657353 7.11907362,27.4872079 6.82260476,27.4872079 L3.04936475,27.4872079 C2.75289589,27.4872079 2.51033046,27.2657353 2.51033046,26.9950466 L2.51033046,25.616995 C2.51033046,25.3463063 2.75289589,25.1248337 3.04936475,25.1248337 Z M9.05959706,25.1248337 L10.5688931,25.1248337 C10.8653619,25.1248337 11.1079274,25.3463063 11.1079274,25.616995 L11.1079274,26.9950466 C11.1079274,27.2657353 10.8653619,27.4872079 10.5688931,27.4872079 L9.05959706,27.4872079 C8.7631282,27.4872079 8.52056277,27.2657353 8.52056277,26.9950466 L8.52056277,25.616995 C8.52056277,25.3463063 8.7631282,25.1248337 9.05959706,25.1248337 Z M12.8597888,25.1248337 L14.3690848,25.1248337 C14.6655537,25.1248337 14.9081191,25.3463063 14.9081191,25.616995 L14.9081191,26.9950466 C14.9081191,27.2657353 14.6655537,27.4872079 14.3690848,27.4872079 L12.8597888,27.4872079 C12.5633199,27.4872079 12.3207545,27.2657353 12.3207545,26.9950466 L12.3207545,25.616995 C12.3207545,25.3463063 12.5633199,25.1248337 12.8597888,25.1248337 Z M16.6599805,25.1248337 L18.1692765,25.1248337 C18.4657454,25.1248337 18.7083108,25.3463063 18.7083108,25.616995 L18.7083108,26.9950466 C18.7083108,27.2657353 18.4657454,27.4872079 18.1692765,27.4872079 L16.6599805,27.4872079 C16.3635117,27.4872079 16.1209462,27.2657353 16.1209462,26.9950466 L16.1209462,25.616995 C16.1209462,25.3463063 16.3635117,25.1248337 16.6599805,25.1248337 L16.6599805,25.1248337 Z M20.4601723,25.1248337 L21.9694683,25.1248337 C22.2659371,25.1248337 22.5085025,25.3463063 22.5085025,25.616995 L22.5085025,26.9950466 C22.5085025,27.2657353 22.2659371,27.4872079 21.9694683,27.4872079 L20.4601723,27.4872079 C20.1637034,27.4872079 19.921138,27.2657353 19.921138,26.9950466 L19.921138,25.616995 C19.921138,25.3463063 20.1637034,25.1248337 20.4601723,25.1248337 Z M24.260364,25.1248337 L25.76966,25.1248337 C26.0661288,25.1248337 26.3086943,25.3463063 26.3086943,25.616995 L26.3086943,26.9950466 C26.3086943,27.2657353 26.0661288,27.4872079 25.76966,27.4872079 L24.260364,27.4872079 C23.9638951,27.4872079 23.7213297,27.2657353 23.7213297,26.9950466 L23.7213297,25.616995 C23.7213297,25.3463063 23.9638951,25.1248337 24.260364,25.1248337 Z M28.0605557,25.1248337 L29.5698517,25.1248337 C29.8663206,25.1248337 30.108886,25.3463063 30.108886,25.616995 L30.108886,26.9950466 C30.108886,27.2657353 29.8663206,27.4872079 29.5698517,27.4872079 L28.0605557,27.4872079 C27.7640869,27.4872079 27.5215214,27.2657353 27.5215214,26.9950466 L27.5215214,25.616995 C27.5215214,25.3463063 27.7640869,25.1248337 28.0605557,25.1248337 Z M31.8607474,25.1248337 L33.3700435,25.1248337 C33.6665123,25.1248337 33.9090777,25.3463063 33.9090777,25.616995 L33.9090777,26.9950466 C33.9090777,27.2657353 33.6665123,27.4872079 33.3700435,27.4872079 L31.8607474,27.4872079 C31.5642786,27.4872079 31.3217132,27.2657353 31.3217132,26.9950466 L31.3217132,25.616995 C31.3217132,25.3463063 31.5642786,25.1248337 31.8607474,25.1248337 Z M35.6339875,25.1248337 L37.1432835,25.1248337 C37.4397523,25.1248337 37.6823178,25.3463063 37.6823178,25.616995 L37.6823178,26.9950466 C37.6823178,27.2657353 37.4397523,27.4872079 37.1432835,27.4872079 L35.6339875,27.4872079 C35.3375186,27.4872079 35.0949532,27.2657353 35.0949532,26.9950466 L35.0949532,25.616995 C35.0949532,25.3463063 35.3375186,25.1248337 35.6339875,25.1248337 Z M39.4341792,25.1248337 L40.9434752,25.1248337 C41.2399441,25.1248337 41.4825095,25.3463063 41.4825095,25.616995 L41.4825095,26.9950466 C41.4825095,27.2657353 41.2399441,27.4872079 40.9434752,27.4872079 L39.4341792,27.4872079 C39.1377103,27.4872079 38.8951449,27.2657353 38.8951449,26.9950466 L38.8951449,25.616995 C38.8951449,25.3463063 39.1377103,25.1248337 39.4341792,25.1248337 Z M43.2343709,25.1248337 L44.7436669,25.1248337 C45.0401358,25.1248337 45.2827012,25.3463063 45.2827012,25.616995 L45.2827012,26.9950466 C45.2827012,27.2657353 45.0401358,27.4872079 44.7436669,27.4872079 L43.2343709,27.4872079 C42.9379021,27.4872079 42.6953366,27.2657353 42.6953366,26.9950466 L42.6953366,25.616995 C42.6953366,25.3463063 42.9379021,25.1248337 43.2343709,25.1248337 Z M47.0345627,25.1248337 L48.5438587,25.1248337 C48.8403275,25.1248337 49.0828929,25.3463063 49.0828929,25.616995 L49.0828929,26.9950466 C49.0828929,27.2657353 48.8403275,27.4872079 48.5438587,27.4872079 L47.0345627,27.4872079 C46.7380938,27.4872079 46.4955284,27.2657353 46.4955284,26.9950466 L46.4955284,25.616995 C46.4955284,25.3463063 46.7380938,25.1248337 47.0345627,25.1248337 Z M50.8347544,25.1248337 L52.3440504,25.1248337 C52.6405192,25.1248337 52.8830847,25.3463063 52.8830847,25.616995 L52.8830847,26.9950466 C52.8830847,27.2657353 52.6405192,27.4872079 52.3440504,27.4872079 L50.8347544,27.4872079 C50.5382855,27.4872079 50.2957201,27.2657353 50.2957201,26.9950466 L50.2957201,25.616995 C50.2957201,25.3463063 50.5382855,25.1248337 50.8347544,25.1248337 Z M54.6349461,25.1248337 L56.1442421,25.1248337 C56.440711,25.1248337 56.6832764,25.3463063 56.6832764,25.616995 L56.6832764,26.9950466 C56.6832764,27.2657353 56.440711,27.4872079 56.1442421,27.4872079 L54.6349461,27.4872079 C54.3384773,27.4872079 54.0959118,27.2657353 54.0959118,26.9950466 L54.0959118,25.616995 C54.0959118,25.3463063 54.3384773,25.1248337 54.6349461,25.1248337 Z M58.4351378,25.1248337 L59.9444339,25.1248337 C60.2409027,25.1248337 60.4834681,25.3463063 60.4834681,25.616995 L60.4834681,26.9950466 C60.4834681,27.2657353 60.2409027,27.4872079 59.9444339,27.4872079 L58.4351378,27.4872079 C58.138669,27.4872079 57.8961036,27.2657353 57.8961036,26.9950466 L57.8961036,25.616995 C57.8961036,25.3463063 58.138669,25.1248337 58.4351378,25.1248337 L58.4351378,25.1248337 Z M62.2353296,25.1248337 L63.7446256,25.1248337 C64.0410944,25.1248337 64.2836599,25.3463063 64.2836599,25.616995 L64.2836599,26.9950466 C64.2836599,27.2657353 64.0410944,27.4872079 63.7446256,27.4872079 L62.2353296,27.4872079 C61.9388607,27.4872079 61.6962953,27.2657353 61.6962953,26.9950466 L61.6962953,25.616995 C61.6962953,25.3463063 61.9388607,25.1248337 62.2353296,25.1248337 Z M3.04936475,28.8160433 L6.82260476,28.8160433 C7.11907362,28.8160433 7.36163905,29.0375159 7.36163905,29.3082046 L7.36163905,30.6862562 C7.36163905,30.9569449 7.11907362,31.1784175 6.82260476,31.1784175 L3.04936475,31.1784175 C2.75289589,31.1784175 2.51033046,30.9569449 2.51033046,30.6862562 L2.51033046,29.3082046 C2.51033046,29.0375159 2.75289589,28.8160433 3.04936475,28.8160433 Z M9.05959706,28.8160433 L10.5688931,28.8160433 C10.8653619,28.8160433 11.1079274,29.0375159 11.1079274,29.3082046 L11.1079274,30.6862562 C11.1079274,30.9569449 10.8653619,31.1784175 10.5688931,31.1784175 L9.05959706,31.1784175 C8.7631282,31.1784175 8.52056277,30.9569449 8.52056277,30.6862562 L8.52056277,29.3082046 C8.52056277,29.0375159 8.7631282,28.8160433 9.05959706,28.8160433 Z M12.8597888,28.8160433 L14.3690848,28.8160433 C14.6655537,28.8160433 14.9081191,29.0375159 14.9081191,29.3082046 L14.9081191,30.6862562 C14.9081191,30.9569449 14.6655537,31.1784175 14.3690848,31.1784175 L12.8597888,31.1784175 C12.5633199,31.1784175 12.3207545,30.9569449 12.3207545,30.6862562 L12.3207545,29.3082046 C12.3207545,29.0375159 12.5633199,28.8160433 12.8597888,28.8160433 Z M16.6599805,28.8160433 L18.1692765,28.8160433 C18.4657454,28.8160433 18.7083108,29.0375159 18.7083108,29.3082046 L18.7083108,30.6862562 C18.7083108,30.9569449 18.4657454,31.1784175 18.1692765,31.1784175 L16.6599805,31.1784175 C16.3635117,31.1784175 16.1209462,30.9569449 16.1209462,30.6862562 L16.1209462,29.3082046 C16.1209462,29.0375159 16.3635117,28.8160433 16.6599805,28.8160433 L16.6599805,28.8160433 Z M20.4601723,28.8160433 L21.9694683,28.8160433 C22.2659371,28.8160433 22.5085025,29.0375159 22.5085025,29.3082046 L22.5085025,30.6862562 C22.5085025,30.9569449 22.2659371,31.1784175 21.9694683,31.1784175 L20.4601723,31.1784175 C20.1637034,31.1784175 19.921138,30.9569449 19.921138,30.6862562 L19.921138,29.3082046 C19.921138,29.0375159 20.1637034,28.8160433 20.4601723,28.8160433 Z M24.260364,28.8160433 L40.9434752,28.8160433 C41.2399441,28.8160433 41.4825095,29.0375159 41.4825095,29.3082046 L41.4825095,30.6862562 C41.4825095,30.9569449 41.2399441,31.1784175 40.9434752,31.1784175 L24.260364,31.1784175 C23.9638951,31.1784175 23.7213297,30.9569449 23.7213297,30.6862562 L23.7213297,29.3082046 C23.7213297,29.0375159 23.9638951,28.8160433 24.260364,28.8160433 Z M43.2343709,28.8160433 L44.7436669,28.8160433 C45.0401358,28.8160433 45.2827012,29.0375159 45.2827012,29.3082046 L45.2827012,30.6862562 C45.2827012,30.9569449 45.0401358,31.1784175 44.7436669,31.1784175 L43.2343709,31.1784175 C42.9379021,31.1784175 42.6953366,30.9569449 42.6953366,30.6862562 L42.6953366,29.3082046 C42.6953366,29.0375159 42.9379021,28.8160433 43.2343709,28.8160433 Z M47.0345627,28.8160433 L48.5438587,28.8160433 C48.8403275,28.8160433 49.0828929,29.0375159 49.0828929,29.3082046 L49.0828929,30.6862562 C49.0828929,30.9569449 48.8403275,31.1784175 48.5438587,31.1784175 L47.0345627,31.1784175 C46.7380938,31.1784175 46.4955284,30.9569449 46.4955284,30.6862562 L46.4955284,29.3082046 C46.4955284,29.0375159 46.7380938,28.8160433 47.0345627,28.8160433 Z M50.8347544,28.8160433 L52.3440504,28.8160433 C52.6405192,28.8160433 52.8830847,29.0375159 52.8830847,29.3082046 L52.8830847,30.6862562 C52.8830847,30.9569449 52.6405192,31.1784175 52.3440504,31.1784175 L50.8347544,31.1784175 C50.5382855,31.1784175 50.2957201,30.9569449 50.2957201,30.6862562 L50.2957201,29.3082046 C50.2957201,29.0375159 50.5382855,28.8160433 50.8347544,28.8160433 Z M54.6349461,28.8160433 L56.1442421,28.8160433 C56.440711,28.8160433 56.6832764,29.0375159 56.6832764,29.3082046 L56.6832764,30.6862562 C56.6832764,30.9569449 56.440711,31.1784175 56.1442421,31.1784175 L54.6349461,31.1784175 C54.3384773,31.1784175 54.0959118,30.9569449 54.0959118,30.6862562 L54.0959118,29.3082046 C54.0959118,29.0375159 54.3384773,28.8160433 54.6349461,28.8160433 Z M58.4351378,28.8160433 L59.9444339,28.8160433 C60.2409027,28.8160433 60.4834681,29.0375159 60.4834681,29.3082046 L60.4834681,30.6862562 C60.4834681,30.9569449 60.2409027,31.1784175 59.9444339,31.1784175 L58.4351378,31.1784175 C58.138669,31.1784175 57.8961036,30.9569449 57.8961036,30.6862562 L57.8961036,29.3082046 C57.8961036,29.0375159 58.138669,28.8160433 58.4351378,28.8160433 L58.4351378,28.8160433 Z M62.2353296,28.8160433 L63.7446256,28.8160433 C64.0410944,28.8160433 64.2836599,29.0375159 64.2836599,29.3082046 L64.2836599,30.6862562 C64.2836599,30.9569449 64.0410944,31.1784175 63.7446256,31.1784175 L62.2353296,31.1784175 C61.9388607,31.1784175 61.6962953,30.9569449 61.6962953,30.6862562 L61.6962953,29.3082046 C61.6962953,29.0375159 61.9388607,28.8160433 62.2353296,28.8160433 Z M63.7446256,19.8587079 L59.9713856,19.8587079 C59.6749167,19.8587079 59.4323513,19.6372353 59.4323513,19.3665466 L59.4323513,17.988495 C59.4323513,17.7178063 59.6749167,17.4963337 59.9713856,17.4963337 L63.7446256,17.4963337 C64.0410944,17.4963337 64.2836599,17.7178063 64.2836599,17.988495 L64.2836599,19.3665466 C64.2836599,19.6372353 64.0410944,19.8587079 63.7446256,19.8587079 Z M57.7074416,19.8587079 L56.1981456,19.8587079 C55.9016767,19.8587079 55.6591113,19.6372353 55.6591113,19.3665466 L55.6591113,17.988495 C55.6591113,17.7178063 55.9016767,17.4963337 56.1981456,17.4963337 L57.7074416,17.4963337 C58.0039104,17.4963337 58.2464758,17.7178063 58.2464758,17.988495 L58.2464758,19.3665466 C58.2464758,19.6372353 58.0039104,19.8587079 57.7074416,19.8587079 Z M53.9072498,19.8587079 L52.3979538,19.8587079 C52.101485,19.8587079 51.8589195,19.6372353 51.8589195,19.3665466 L51.8589195,17.988495 C51.8589195,17.7178063 52.101485,17.4963337 52.3979538,17.4963337 L53.9072498,17.4963337 C54.2037187,17.4963337 54.4462841,17.7178063 54.4462841,17.988495 L54.4462841,19.3665466 C54.4462841,19.6372353 54.2037187,19.8587079 53.9072498,19.8587079 Z M50.1340098,19.8587079 L48.6247138,19.8587079 C48.3282449,19.8587079 48.0856795,19.6372353 48.0856795,19.3665466 L48.0856795,17.988495 C48.0856795,17.7178063 48.3282449,17.4963337 48.6247138,17.4963337 L50.1340098,17.4963337 C50.4304787,17.4963337 50.6730441,17.7178063 50.6730441,17.988495 L50.6730441,19.3665466 C50.6730441,19.6372353 50.4304787,19.8587079 50.1340098,19.8587079 Z M46.3338181,19.8587079 L44.8245221,19.8587079 C44.5280532,19.8587079 44.2854878,19.6372353 44.2854878,19.3665466 L44.2854878,17.988495 C44.2854878,17.7178063 44.5280532,17.4963337 44.8245221,17.4963337 L46.3338181,17.4963337 C46.6302869,17.4963337 46.8728524,17.7178063 46.8728524,17.988495 L46.8728524,19.3665466 C46.8728524,19.6372353 46.6302869,19.8587079 46.3338181,19.8587079 Z M42.5336263,19.8587079 L41.0243303,19.8587079 C40.7278615,19.8587079 40.4852961,19.6372353 40.4852961,19.3665466 L40.4852961,17.988495 C40.4852961,17.7178063 40.7278615,17.4963337 41.0243303,17.4963337 L42.5336263,17.4963337 C42.8300952,17.4963337 43.0726606,17.7178063 43.0726606,17.988495 L43.0726606,19.3665466 C43.0726606,19.6372353 42.8300952,19.8587079 42.5336263,19.8587079 Z M38.7334346,19.8587079 L37.2241386,19.8587079 C36.9276698,19.8587079 36.6851043,19.6372353 36.6851043,19.3665466 L36.6851043,17.988495 C36.6851043,17.7178063 36.9276698,17.4963337 37.2241386,17.4963337 L38.7334346,17.4963337 C39.0299035,17.4963337 39.2724689,17.7178063 39.2724689,17.988495 L39.2724689,19.3665466 C39.2724689,19.6372353 39.0299035,19.8587079 38.7334346,19.8587079 Z M34.9332429,19.8587079 L33.4239469,19.8587079 C33.127478,19.8587079 32.8849126,19.6372353 32.8849126,19.3665466 L32.8849126,17.988495 C32.8849126,17.7178063 33.127478,17.4963337 33.4239469,17.4963337 L34.9332429,17.4963337 C35.2297117,17.4963337 35.4722772,17.7178063 35.4722772,17.988495 L35.4722772,19.3665466 C35.4722772,19.6372353 35.2297117,19.8587079 34.9332429,19.8587079 Z M31.1330512,19.8587079 L29.6237551,19.8587079 C29.3272863,19.8587079 29.0847209,19.6372353 29.0847209,19.3665466 L29.0847209,17.988495 C29.0847209,17.7178063 29.3272863,17.4963337 29.6237551,17.4963337 L31.1330512,17.4963337 C31.42952,17.4963337 31.6720854,17.7178063 31.6720854,17.988495 L31.6720854,19.3665466 C31.6720854,19.6372353 31.42952,19.8587079 31.1330512,19.8587079 Z M27.3328594,19.8587079 L25.8235634,19.8587079 C25.5270946,19.8587079 25.2845291,19.6372353 25.2845291,19.3665466 L25.2845291,17.988495 C25.2845291,17.7178063 25.5270946,17.4963337 25.8235634,17.4963337 L27.3328594,17.4963337 C27.6293283,17.4963337 27.8718937,17.7178063 27.8718937,17.988495 L27.8718937,19.3665466 C27.8718937,19.6372353 27.6293283,19.8587079 27.3328594,19.8587079 L27.3328594,19.8587079 Z M23.5326677,19.8587079 L22.0233717,19.8587079 C21.7269028,19.8587079 21.4843374,19.6372353 21.4843374,19.3665466 L21.4843374,17.988495 C21.4843374,17.7178063 21.7269028,17.4963337 22.0233717,17.4963337 L23.5326677,17.4963337 C23.8291366,17.4963337 24.071702,17.7178063 24.071702,17.988495 L24.071702,19.3665466 C24.071702,19.6372353 23.8291366,19.8587079 23.5326677,19.8587079 Z M19.732476,19.8587079 L18.22318,19.8587079 C17.9267111,19.8587079 17.6841457,19.6372353 17.6841457,19.3665466 L17.6841457,17.988495 C17.6841457,17.7178063 17.9267111,17.4963337 18.22318,17.4963337 L19.732476,17.4963337 C20.0289448,17.4963337 20.2715103,17.7178063 20.2715103,17.988495 L20.2715103,19.3665466 C20.2715103,19.6372353 20.0289448,19.8587079 19.732476,19.8587079 Z M15.9592359,19.8587079 L14.4499399,19.8587079 C14.1534711,19.8587079 13.9109057,19.6372353 13.9109057,19.3665466 L13.9109057,17.988495 C13.9109057,17.7178063 14.1534711,17.4963337 14.4499399,17.4963337 L15.9592359,17.4963337 C16.2557048,17.4963337 16.4982702,17.7178063 16.4982702,17.988495 L16.4982702,19.3665466 C16.4982702,19.6372353 16.2557048,19.8587079 15.9592359,19.8587079 Z M12.1590442,19.8587079 L10.6497482,19.8587079 C10.3532793,19.8587079 10.1107139,19.6372353 10.1107139,19.3665466 L10.1107139,17.988495 C10.1107139,17.7178063 10.3532793,17.4963337 10.6497482,17.4963337 L12.1590442,17.4963337 C12.4555131,17.4963337 12.6980785,17.7178063 12.6980785,17.988495 L12.6980785,19.3665466 C12.6980785,19.6372353 12.4555131,19.8587079 12.1590442,19.8587079 Z M8.35885248,19.8587079 L6.84955648,19.8587079 C6.55308762,19.8587079 6.31052219,19.6372353 6.31052219,19.3665466 L6.31052219,17.988495 C6.31052219,17.7178063 6.55308762,17.4963337 6.84955648,17.4963337 L8.35885248,17.4963337 C8.65532134,17.4963337 8.89788677,17.7178063 8.89788677,17.988495 L8.89788677,19.3665466 C8.89788677,19.6372353 8.65532134,19.8587079 8.35885248,19.8587079 Z M4.55866075,19.8587079 L3.04936475,19.8587079 C2.75289589,19.8587079 2.51033046,19.6372353 2.51033046,19.3665466 L2.51033046,17.988495 C2.51033046,17.7178063 2.75289589,17.4963337 3.04936475,17.4963337 L4.55866075,17.4963337 C4.85512961,17.4963337 5.09769504,17.7178063 5.09769504,17.988495 L5.09769504,19.3665466 C5.09769504,19.6372353 4.85512961,19.8587079 4.55866075,19.8587079 Z" id="Shape" stroke="#5BA1E1" stroke-width="0.805369128" fill="#EEF2F8" opacity="0.5"></path>
                            <path d="M27.1711491,26.379845 C25.392336,25.8384676 23.4787643,26.6997498 22.8858265,28.3238821 C22.8858265,28.3484901 22.8858265,28.3484901 22.8588748,28.3730982 L22.4006957,29.6773256 C22.2659371,30.0710546 21.9425165,30.3909595 21.5112891,30.5386079 C20.7835928,30.7846885 19.9480897,30.4401756 19.6785725,29.7757579 C19.5707657,29.5050691 19.5707657,29.1851643 19.6785725,28.9144756 L21.4034823,24.1897273 C21.4843374,23.9682547 21.6460477,23.7959982 21.8616614,23.697566 L23.9369434,22.7870676 C25.6079497,22.0242176 26.2817426,20.1540047 25.4462394,18.6283047 C25.4462394,18.6283047 25.4462394,18.6036966 25.4192877,18.6036966 L22.9666817,19.7356676 C23.3440057,18.8989934 23.317054,17.9392789 22.8858265,17.1272128 L17.27987,19.6372353 C16.7677874,19.8587079 16.3365599,20.2278289 16.0400911,20.670774 C15.8244774,20.3508692 15.5010568,20.0801805 15.0967811,19.9817482 C14.2073745,19.7110595 13.2371128,20.1540047 12.9136922,20.9660708 L12.2398994,22.8362837 C12.0512374,22.6394192 11.7817202,22.4671627 11.4852514,22.3933386 C10.5958448,22.1226498 9.62558306,22.565595 9.30216249,23.3776611 L6.93041162,29.8495821 C6.36442562,31.3998901 6.36442562,33.0978465 6.95736334,34.6481546 L4.77427447,40.55409 L14.2882297,43.4824497 L15.9053325,39.0776062 C16.3096082,37.9948513 17.091208,37.084353 18.1692765,36.5183675 L23.5596194,33.5407917 C24.3142674,33.1224546 24.8533017,32.4826449 25.1497706,31.744403 L27.1711491,26.379845 L27.1711491,26.379845 Z" id="_Clipping_Path_5" fill="#FFFFFF"></path>
                            <g id="Group" transform="translate(9.922052, 17.717806)" fill="#2481D7" opacity="0.25">
                                <path d="M14.8773464,1.7963887 L12.5594989,2.68227901 L10.187748,3.59277739 L9.86432747,3.71581772 L9.83737576,3.74042578 L9.81042404,3.74042578 L9.7295689,3.76503384 L9.59481033,3.81424997 C9.40614833,3.88807417 9.24443804,4.01111449 9.10967947,4.10954675 C8.7862589,4.35562739 8.54369347,4.67553223 8.40893489,5.04465319 L5.39034288,11.861087 L7.4925766,4.77396448 C7.70819032,3.98650642 8.22027289,3.32208869 8.94796918,2.85453546 L9.13663118,2.75610321 L9.21748633,2.70688708 L9.32529318,2.65767095 L9.62176204,2.4854145 L11.8587543,1.32883547 L14.0418432,0.196864515 C14.5000223,-0.0492161287 15.0929601,0.0984322574 15.3355255,0.516769351 C15.5780909,0.935106445 15.4433324,1.47648386 14.9851532,1.69795644 L14.8773464,1.7963887 Z M6.27974946,3.19904836 L2.8029783,10.7537241 L5.01301888,2.80531934 C5.12082574,2.4854145 5.49814974,2.28854998 5.84852203,2.38698224 C6.1719426,2.4854145 6.38755631,2.78071127 6.30670117,3.10061611 C6.30670117,3.14983224 6.27974946,3.1744403 6.27974946,3.19904836 L6.27974946,3.19904836 Z M2.93773687,3.8634661 L0.161710286,10.8767644 L1.64405458,3.5189532 C1.69795801,3.1744403 2.07528201,2.95296772 2.4256543,3.02679191 C2.8029783,3.07600804 3.04554373,3.42052094 2.96468858,3.74042578 C2.96468858,3.78964191 2.93773687,3.81424997 2.93773687,3.8634661 L2.93773687,3.8634661 Z" id="Shape"></path>
                                <path d="M12.6403541,11.491966 L12.1821749,12.7961935 C12.0743681,13.1407064 11.7778992,13.4606112 11.4275269,13.6082596 C10.7267823,13.9035564 9.86432747,13.6328676 9.5409069,12.993058 C9.37919661,12.6977612 9.3522449,12.3532483 9.48700347,12.0333435 L11.2119132,7.30859511" id="_Path_" stroke="#2481D7" stroke-width="0.805369128"></path>
                                <path d="M10.8345892,17.3486854 L5.39034288,20.4000853 C4.42008116,20.9414628 3.71933659,21.7535289 3.34201259,22.7132434 L2.37175087,25.0756176 L8.32807975,26.8966143 L10.8345892,17.3486854" id="Shape" stroke="#2481D7" stroke-width="0.805369128"></path>
                            </g>
                            <path d="M27.1711491,26.379845 C25.392336,25.8384676 23.4787643,26.6997498 22.8858265,28.3238821 C22.8858265,28.3484901 22.8858265,28.3484901 22.8588748,28.3730982 L22.4006957,29.6773256 C22.2659371,30.0710546 21.9425165,30.3909595 21.5112891,30.5386079 C20.7835928,30.7846885 19.9480897,30.4401756 19.6785725,29.7757579 C19.5707657,29.5050691 19.5707657,29.1851643 19.6785725,28.9144756 L21.4034823,24.1897273 C21.4843374,23.9682547 21.6460477,23.7959982 21.8616614,23.697566 L23.9369434,22.7870676 C25.6079497,22.0242176 26.2817426,20.1540047 25.4462394,18.6283047 C25.4462394,18.6283047 25.4462394,18.6036966 25.4192877,18.6036966 L22.9666817,19.7356676 C23.3440057,18.8989934 23.317054,17.9392789 22.8858265,17.1272128 L17.27987,19.6372353 C16.7677874,19.8587079 16.3365599,20.2278289 16.0400911,20.670774 C15.8244774,20.3508692 15.5010568,20.0801805 15.0967811,19.9817482 C14.2073745,19.7110595 13.2371128,20.1540047 12.9136922,20.9660708 L12.2398994,22.8362837 C12.0512374,22.6394192 11.7817202,22.4671627 11.4852514,22.3933386 C10.5958448,22.1226498 9.62558306,22.565595 9.30216249,23.3776611 L6.93041162,29.8495821 C6.36442562,31.3998901 6.36442562,33.0978465 6.95736334,34.6481546 L4.77427447,40.55409 L14.2882297,43.4824497 L15.9053325,39.0776062 C16.3096082,37.9948513 17.091208,37.084353 18.1692765,36.5183675 L23.5596194,33.5407917 C24.3142674,33.1224546 24.8533017,32.4826449 25.1497706,31.744403 L27.1711491,26.379845 L27.1711491,26.379845 Z" id="_Clipping_Path_6" stroke="#5088BF" stroke-width="0.805369128"></path>
                            <path d="M24.8533017,18.8989934 L19.8941862,21.1137192 C19.16649,21.433624 18.6274557,22.0242176 18.3579385,22.7378515 L15.7705739,29.7757579 M12.9136922,29.1113401 L15.7975257,21.2367595 C16.0670428,20.5231257 16.6060771,19.9571402 17.3337734,19.6126273 L21.8616614,17.594766 M12.3746579,22.5902031 L10.2724242,28.299274" id="Shape" stroke="#5088BF" stroke-width="0.805369128"></path>
                            <path d="M14.5307951,45.2296223 L3.96572304,41.9813578 L5.09769504,38.9053497 C5.15159847,38.7823094 5.28635704,38.7084852 5.44806733,38.7577013 L15.5010568,41.8337094 C15.6358154,41.8829255 15.7166705,42.0059658 15.6627671,42.1536142 L14.5307951,45.2296223 Z" id="Shape" stroke="#5088BF" stroke-width="0.805369128" fill="#91C0EB"></path>
                            <path d="M6.66089448,39.003782 L5.3941639,42.448911 M7.79286648,39.3482949 L6.5261359,42.7934239 M8.89788677,39.6928078 L7.65810791,43.1379368 M10.0298588,40.0373207 L8.7631282,43.4824497 M11.1618308,40.3818336 L9.89510021,43.8269626 M12.2668511,40.7263465 L11.0270722,44.1714755 M13.3988231,41.0708594 L12.1320925,44.5159884 M14.5307951,41.4153723 L13.2640645,44.8605013" id="Shape" stroke="#5088BF" stroke-width="0.805369128"></path>
                            <path d="M0.812372451,47.3951319 L2.29471674,43.3594094 C2.67204074,42.3258707 3.91181961,41.7844933 5.0168399,42.1290062 L13.9109057,44.8358932 C15.0428777,45.1804061 15.6358154,46.3123771 15.2584914,47.3213077 L13.7761471,51.3570303" id="_Clipping_Path_7" fill="#C8DFF5"></path>
                            <path d="M13.7761471,51.3570303 L15.3393465,47.1244432 C15.6897188,46.1893368 15.2045879,45.2050142 14.2612779,44.9097174 L11.9164788,44.1960836 C12.8597888,44.4913803 13.3449196,45.4757029 12.9945474,46.4108094 L11.4313479,50.6433964 L13.7761471,51.3570303 Z" id="Shape" stroke="#2481D7" stroke-width="0.805369128" fill="#2481D7" opacity="0.25"></path>
                            <path d="M0.812372451,47.3951319 L2.29471674,43.3594094 C2.67204074,42.3258707 3.91181961,41.7844933 5.0168399,42.1290062 L13.9109057,44.8358932 C15.0428777,45.1804061 15.6358154,46.3123771 15.2584914,47.3213077 L13.7761471,51.3570303" id="_Clipping_Path_8" stroke="#5088BF" stroke-width="0.805369128"></path>
                            <path d="M0.812372451,47.3951319 L2.29471674,43.3594094 C2.67204074,42.3258707 3.91181961,41.7844933 5.0168399,42.1290062 L13.9109057,44.8358932 C15.0428777,45.1804061 15.6358154,46.3123771 15.2584914,47.3213077 L13.7761471,51.3570303" id="_Path_2" stroke="#5088BF" stroke-width="0.805369128" fill="#EEF2F8"></path>
                            <path d="M3.85791618,44.5898126 L2.45642703,48.4040626 M4.66646761,45.8202158 L3.26497846,49.6344658 M5.47501904,47.050619 L4.07352989,50.864869" id="Shape" stroke="#FFFFFF" stroke-width="0.805369128"></path>
                            <path d="M40.4313926,26.379845 C42.2102058,25.8384676 44.1237775,26.6997498 44.7167152,28.3238821 C44.7167152,28.3484901 44.7167152,28.3484901 44.7436669,28.3730982 L45.2018461,29.6773256 C45.3366046,30.0710546 45.6600252,30.3909595 46.0912526,30.5386079 C46.8189489,30.7846885 47.6544521,30.4401756 47.9239692,29.7757579 C48.0317761,29.5050691 48.0317761,29.1851643 47.9239692,28.9144756 L46.1990595,24.1897273 C46.1182044,23.9682547 45.9564941,23.7959982 45.7408804,23.697566 L43.6655984,22.7870676 C41.9945921,22.0242176 41.3207992,20.1540047 42.1563023,18.6283047 C42.1563023,18.6283047 42.1563023,18.6036966 42.1832541,18.6036966 L44.6628118,19.7356676 C44.2854878,18.8989934 44.3124395,17.9392789 44.7436669,17.1272128 L50.3226718,19.6372353 C50.8347544,19.8587079 51.2659818,20.2278289 51.5624507,20.670774 C51.7780644,20.3508692 52.101485,20.0801805 52.5057607,19.9817482 C53.3951673,19.7110595 54.365429,20.1540047 54.6888495,20.9660708 L55.3626424,22.8362837 C55.5513044,22.6394192 55.8208215,22.4671627 56.1172904,22.3933386 C57.006697,22.1226498 57.9769587,22.565595 58.3003793,23.3776611 L60.6721301,29.8495821 C61.2381161,31.3998901 61.2381161,33.0978465 60.6451784,34.6481546 L62.8013156,40.55409 L53.3143121,43.4578416 L51.6972092,39.0529981 C51.2929335,37.9702433 50.5113338,37.0597449 49.4332652,36.4937594 L44.0429224,33.5161836 C43.2882744,33.0978465 42.7492401,32.4580369 42.4527712,31.7197949 L40.4313926,26.379845 Z" id="_Clipping_Path_9" fill="#FFFFFF"></path>
                            <g id="Group" transform="translate(41.994592, 17.717806)" fill="#2481D7" opacity="0.25">
                                <path d="M1.64405458,0.246080643 L3.82714345,1.3780516 L6.06413574,2.53463063 L6.3606046,2.70688708 L6.46841146,2.75610321 L6.5492666,2.80531934 L6.7379286,2.90375159 C7.46562489,3.34669675 7.97770746,4.03572255 8.19332118,4.82318061 L10.2955549,11.9103031 L7.3039146,5.11847738 C7.16915603,4.74935642 6.9265906,4.42945158 6.60317003,4.18337094 C6.44145974,4.06033062 6.27974946,3.96189836 6.11803917,3.88807417 L5.9832806,3.83885804 L5.90242545,3.81424997 L5.87547374,3.81424997 L5.84852203,3.78964191 L5.52510145,3.66660159 L3.15335059,2.75610321 L0.835503147,1.87021289 C0.350372287,1.69795644 0.107806858,1.20579515 0.269517144,0.762849995 C0.458179145,0.319904836 0.997213433,0.0984322574 1.48234429,0.246080643 C1.50929601,0.246080643 1.53624772,0.270688708 1.56319944,0.270688708 L1.64405458,0.246080643 L1.64405458,0.246080643 Z M10.6998306,2.80531934 L12.9098712,10.7537241 L9.43310004,3.19904836 C9.27138975,2.87914353 9.40614833,2.53463063 9.75652061,2.38698224 C10.1068929,2.23933386 10.4842169,2.36237418 10.6459272,2.68227901 C10.6459272,2.70688708 10.6728789,2.70688708 10.6728789,2.73149514 C10.6728789,2.73149514 10.6998306,2.78071127 10.6998306,2.80531934 Z M14.0687949,3.5189532 L15.5511392,10.8767644 L12.7751126,3.8634661 C12.6403541,3.54356127 12.8020643,3.19904836 13.1524366,3.05139998 C13.5028089,2.90375159 13.8801329,3.07600804 14.0418432,3.39591288 C14.0418432,3.42052094 14.0418432,3.42052094 14.0687949,3.44512901 C14.0418432,3.46973707 14.0687949,3.49434514 14.0687949,3.5189532 L14.0687949,3.5189532 Z" id="Shape"></path>
                                <path d="M3.04554373,11.491966 L3.50372287,12.7961935 C3.61152973,13.1407064 3.90799859,13.4606112 4.25837088,13.6082596 C4.95911545,13.9035564 5.82157031,13.6328676 6.14499088,12.993058 C6.30670117,12.6977612 6.33365288,12.3532483 6.19889431,12.0333435 L4.47398459,7.30859511" id="_Path_3" stroke="#2481D7" stroke-width="0.805369128"></path>
                                <path d="M4.85130859,17.3486854 L10.2955549,20.4000853 C11.2658166,20.9414628 11.9665612,21.7535289 12.3438852,22.7132434 L13.3141469,25.0756176 L7.35781803,26.8966143 L4.85130859,17.3486854" id="Shape" stroke="#2481D7" stroke-width="0.805369128"></path>
                            </g>
                            <path d="M40.4313926,26.379845 C42.2102058,25.8384676 44.1237775,26.6997498 44.7167152,28.3238821 C44.7167152,28.3484901 44.7167152,28.3484901 44.7436669,28.3730982 L45.2018461,29.6773256 C45.3366046,30.0710546 45.6600252,30.3909595 46.0912526,30.5386079 C46.8189489,30.7846885 47.6544521,30.4401756 47.9239692,29.7757579 C48.0317761,29.5050691 48.0317761,29.1851643 47.9239692,28.9144756 L46.1990595,24.1897273 C46.1182044,23.9682547 45.9564941,23.7959982 45.7408804,23.697566 L43.6655984,22.7870676 C41.9945921,22.0242176 41.3207992,20.1540047 42.1563023,18.6283047 C42.1563023,18.6283047 42.1563023,18.6036966 42.1832541,18.6036966 L44.6628118,19.7356676 C44.2854878,18.8989934 44.3124395,17.9392789 44.7436669,17.1272128 L50.3226718,19.6372353 C50.8347544,19.8587079 51.2659818,20.2278289 51.5624507,20.670774 C51.7780644,20.3508692 52.101485,20.0801805 52.5057607,19.9817482 C53.3951673,19.7110595 54.365429,20.1540047 54.6888495,20.9660708 L55.3626424,22.8362837 C55.5513044,22.6394192 55.8208215,22.4671627 56.1172904,22.3933386 C57.006697,22.1226498 57.9769587,22.565595 58.3003793,23.3776611 L60.6721301,29.8495821 C61.2381161,31.3998901 61.2381161,33.0978465 60.6451784,34.6481546 L62.8013156,40.55409 L53.3143121,43.4578416 L51.6972092,39.0529981 C51.2929335,37.9702433 50.5113338,37.0597449 49.4332652,36.4937594 L44.0429224,33.5161836 C43.2882744,33.0978465 42.7492401,32.4580369 42.4527712,31.7197949 L40.4313926,26.379845 Z" id="_Clipping_Path_10" stroke="#5088BF" stroke-width="0.805369128"></path>
                            <path d="M42.7761918,18.8989934 L47.7353072,21.1137192 C48.4630035,21.433624 49.0020378,22.0242176 49.2715549,22.7378515 L51.8589195,29.7757579 M54.7158013,29.1113401 L51.8319678,21.2367595 C51.5624507,20.5231257 51.0234164,19.9571402 50.2957201,19.6126273 L45.7678321,17.594766 M55.2278838,22.5902031 L57.3301176,28.299274" id="Shape" stroke="#5088BF" stroke-width="0.805369128"></path>
                            <path d="M53.0717467,45.2296223 L63.6368187,41.9813578 L62.5048467,38.9053497 C62.4509433,38.7823094 62.3161847,38.7084852 62.1544744,38.7577013 L52.101485,41.8337094 C51.9667264,41.8829255 51.8858712,42.0059658 51.9397747,42.1536142 L53.0717467,45.2296223 Z" id="Shape" stroke="#5088BF" stroke-width="0.805369128" fill="#91C0EB"></path>
                            <path d="M60.968599,39.003782 L62.2083779,42.448911 M59.836627,39.3482949 L61.1033576,42.7934239 M58.704655,39.6928078 L59.9713856,43.1379368 M57.5996347,40.0373207 L58.8394136,43.4824497 M56.4676627,40.3818336 L57.7343933,43.8269626 M55.3356907,40.7263465 L56.6024213,44.1714755 M54.2306704,41.0708594 L55.4704493,44.5159884 M53.0986984,41.4153723 L54.365429,44.8605013" id="Shape" stroke="#5088BF" stroke-width="0.805369128"></path>
                            <path d="M66.7901693,47.3951319 L65.307825,43.3594094 C64.930501,42.3258707 63.6907222,41.7844933 62.5857019,42.1290062 L53.6916361,44.8358932 C52.5596641,45.1804061 51.9667264,46.3123771 52.3440504,47.3213077 L53.8263947,51.3570303" id="_Clipping_Path_11" fill="#C8DFF5"></path>
                            <path d="M53.8263947,51.3570303 L52.2631952,47.1244432 C51.912823,46.1893368 52.3979538,45.2050142 53.3412638,44.9097174 L55.686063,44.1960836 C54.742753,44.4913803 54.2576221,45.4757029 54.6079944,46.4108094 L56.1711938,50.6433964 L53.8263947,51.3570303 Z" id="Shape" stroke="#2481D7" stroke-width="0.805369128" fill="#2481D7" opacity="0.25"></path>
                            <path d="M66.7901693,47.3951319 L65.307825,43.3594094 C64.930501,42.3258707 63.6907222,41.7844933 62.5857019,42.1290062 L53.6916361,44.8358932 C52.5596641,45.1804061 51.9667264,46.3123771 52.3440504,47.3213077 L53.8263947,51.3570303" id="_Clipping_Path_12" stroke="#5088BF" stroke-width="0.805369128"></path>
                            <path d="M66.7901693,47.3951319 L65.307825,43.3594094 C64.930501,42.3258707 63.6907222,41.7844933 62.5857019,42.1290062 L53.6916361,44.8358932 C52.5596641,45.1804061 51.9667264,46.3123771 52.3440504,47.3213077 L53.8263947,51.3570303" id="_Path_4" stroke="#5088BF" stroke-width="0.805369128" fill="#EEF2F8"></path>
                            <path d="M63.7446256,44.5898126 L65.1461147,48.4040626 M62.9360742,45.8202158 L64.3375633,49.6344658 M62.1275227,47.050619 L63.5290119,50.864869" id="Shape" stroke="#FFFFFF" stroke-width="0.805369128"></path>
                            <path d="M30.6479203,38.7577013 C30.7557272,38.8315255 30.863534,38.8807417 30.9982926,38.9053497 C31.1060994,38.9299578 31.2139063,38.8561336 31.240858,38.7577013 C31.240858,38.634661 31.1060994,38.5854449 30.9174374,38.5854449 L30.7826789,38.5854449 L30.7018237,38.3885804 L30.9174374,38.1424997 C30.9713409,38.0932836 31.0252443,38.0440675 31.052196,37.9948513 L30.48621,37.9948513 L30.48621,37.6749465 L31.5642786,37.6749465 L31.5642786,37.9210272 L31.2139063,38.2901481 C31.4564717,38.3393642 31.618182,38.5116207 31.618182,38.7577013 C31.618182,39.0529981 31.3486649,39.2990788 31.0252443,39.2990788 L30.9713409,39.2990788 C30.7557272,39.2990788 30.5401134,39.2252546 30.3784032,39.1022142 L30.6479203,38.7577013 L30.6479203,38.7577013 Z M32.1033129,38.8807417 L32.5075886,38.8807417 L32.5075886,39.2498626 L32.1033129,39.2498626 L32.1033129,38.8807417 Z M32.9657677,39.0776062 C32.9657677,38.4870126 33.7204157,38.3885804 33.7204157,38.1671078 C33.7204157,38.0932836 33.6395606,38.0194594 33.5587055,38.0194594 L33.5317537,38.0194594 C33.4239469,38.0440675 33.31614,38.0932836 33.2622366,38.1917159 L32.938816,37.9948513 C33.0466229,37.7733788 33.2891883,37.6503384 33.5317537,37.6503384 C33.8282226,37.6257304 34.0977397,37.8225949 34.1246915,38.0932836 L34.1246915,38.1424997 C34.1246915,38.634661 33.4239469,38.7330933 33.4239469,38.9299578 L34.1516432,38.9299578 L34.1516432,39.2498626 L32.9657677,39.2498626 L32.9657677,39.0776062 Z M34.6098223,38.8807417 L35.014098,38.8807417 L35.014098,39.2498626 L34.6098223,39.2498626 L34.6098223,38.8807417 Z M35.4992289,38.9053497 L35.8765529,38.9053497 L35.8765529,38.1178917 C35.8496012,38.1424997 35.8496012,38.1671078 35.8226495,38.1917159 L35.7148426,38.2901481 L35.4722772,38.0440675 L35.9304563,37.6503384 L36.3077803,37.6503384 L36.3077803,38.9053497 L36.6851043,38.9053497 L36.6851043,39.2252546 L35.5261806,39.2252546 L35.4992289,38.9053497 L35.4992289,38.9053497 Z" id="Shape" fill="#C8DFF5"></path>
                            <polygon id="Shape" stroke="#C8DFF5" stroke-width="0.805369128" fill="#FFFFFF" points="24.8407787 47.7765569 26.2153161 47.7765569 26.2153161 49.0315682 24.8407787 49.0315682"></polygon>
                            <path d="M27.4706126,47.7765569 L32.5105832,47.7765569 M27.4706126,49.0069601 L31.4325146,49.0069601" id="Shape" stroke="#C8DFF5" stroke-width="0.805369128"></path>
                            <polygon id="Shape" stroke="#C8DFF5" stroke-width="0.805369128" fill="#FFFFFF" points="34.4835032 47.7765569 35.8580406 47.7765569 35.8580406 49.0315682 34.4835032 49.0315682"></polygon>
                            <path d="M36.6750315,47.7765569 L41.7150021,47.7765569 L36.6750315,47.7765569 Z M36.6750315,49.0069601 L40.6369335,49.0069601 L36.6750315,49.0069601 Z" id="Shape" stroke="#C8DFF5" stroke-width="0.805369128"></path>
                            <polyline id="Shape" fill="#C8DFF5" points="23.3979091 7.06251447 25.3114808 4.87239674 22.2659371 4.67553223"></polyline>
                            <path d="M69.2292751,38.6971592 L68.6407206,38.6971592 C68.5545902,38.4599458 68.3727622,38.3413409 68.095231,38.3413409 C67.7219994,38.3589122 67.5306015,38.6005148 67.5210314,39.0661559 C67.5306015,39.5405826 67.7842038,39.7821852 68.2818459,39.7909709 C68.5785171,39.7909709 68.8943237,39.632831 69.2292751,39.3165465 L69.2292751,39.7250786 C68.9708841,39.988649 68.602443,40.1204322 68.123941,40.1204322 C67.3583377,40.0852895 66.9564021,39.7338676 66.9181219,39.0661559 C66.9276919,38.3720871 67.3200577,38.0118797 68.095231,37.9855226 C68.6981436,37.9943083 69.0761545,38.2315181 69.2292751,38.6971592 Z M69.5594399,38.8025868 L69.5594399,38.459947 L70.4207392,38.459947 L70.4207392,37.6560613 L70.8944539,37.6560613 L70.8944539,38.459947 L71.7413983,38.459947 L71.7413983,38.8025868 L70.8944539,38.8025868 L70.8944539,39.6460079 L70.4207392,39.6460079 L70.4207392,38.8025868 L69.5594399,38.8025868 Z M72.057208,38.8025868 L72.057208,38.459947 L72.9185074,38.459947 L72.9185074,37.6560613 L73.392222,37.6560613 L73.392222,38.459947 L74.2391664,38.459947 L74.2391664,38.8025868 L73.392222,38.8025868 L73.392222,39.6460079 L72.9185074,39.6460079 L72.9185074,38.8025868 L72.057208,38.8025868 Z" id="c++" fill="#F4CECD"></path>
                        </g>
                        <ellipse id="Oval-Copy" stroke="#FFFFFF" stroke-width="0.805369128" fill="#FBF1CA" cx="41.0294118" cy="3.22147651" rx="3.52941176" ry="3.22147651"></ellipse>
                        <ellipse id="Oval-Copy" stroke="#F5D654" stroke-width="0.805369128" cx="40.5882353" cy="3.22147651" rx="3.52941176" ry="3.22147651"></ellipse>
                        <polygon id="￥" fill="#EFC81F" points="39.2647059 2.01342282 40.1320016 3.44824427 39.5583216 3.44824427 39.5583216 3.72036558 40.2991367 3.72036558 40.3036539 3.72448863 40.3036539 4.06670179 39.5583216 4.06670179 39.5583216 4.3388231 40.3036539 4.3388231 40.3036539 4.95728062 40.8728167 4.95728062 40.8728167 4.3388231 41.6226661 4.3388231 41.6226661 4.06670179 40.8728167 4.06670179 40.8728167 3.72448863 40.8773339 3.72036558 41.6226661 3.72036558 41.6226661 3.44824427 41.044469 3.44824427 41.9117647 2.01342282 41.2703272 2.01342282 40.5882353 3.25446091 39.9061433 2.01342282"></polygon>
                        <path d="M52.6345454,56.8791946 L52.6345454,56.5033408 C52.3550015,56.5033408 52.0160388,56.4468105 51.6176471,56.3337482 L51.6176471,55.8341376 C51.9909301,55.9884524 52.3298928,56.0732478 52.6345454,56.0885265 L52.6345454,54.9999255 L52.5064915,54.9197128 C52.1984911,54.730257 51.9909288,54.5702152 51.8837982,54.4395824 C51.7766677,54.3089496 51.7231032,54.1504356 51.7231032,53.9640356 C51.7231032,53.7363832 51.8047053,53.5469303 51.967912,53.3956713 C52.1311187,53.2444123 52.3533276,53.1535055 52.6345454,53.1229481 L52.6345454,52.7516779 L53.0387938,52.7516779 L53.0387938,53.1229481 C53.3015985,53.1351711 53.567747,53.1832982 53.8372473,53.267331 L53.8372473,53.7279811 C53.5627252,53.6103352 53.2965767,53.5408182 53.0387938,53.5194281 L53.0387938,54.5461507 L53.1517825,54.6149045 C53.4681524,54.7997766 53.6819919,54.9579086 53.7933072,55.0893053 C53.9046226,55.2207021 53.9602794,55.3811259 53.9602794,55.5705816 C53.9602794,55.8180963 53.8778403,56.0255014 53.7129597,56.192803 C53.5480791,56.3601047 53.3233594,56.4643801 53.0387938,56.5056326 L53.0387938,56.8791946 L52.6345454,56.8791946 Z M52.9609571,56.061025 C53.200327,55.9922709 53.3200101,55.8578205 53.3200101,55.6576697 C53.3200101,55.5048828 53.200327,55.3505704 52.9609571,55.1947278 L52.9609571,56.061025 Z M52.712382,54.3536402 L52.712382,53.5377624 C52.4813817,53.6080444 52.3658833,53.7333277 52.3658833,53.9136162 C52.3658833,54.0725146 52.4813817,54.2191878 52.712382,54.3536402 Z" id="$" fill="#CFE6DC"></path>
                    </g>
                </g>
            </g>
        </g>
    </g>
</svg>